<?xml version="1.0" encoding="UTF-8" standalone="no"?>
<svg
   xmlns:dc="http://purl.org/dc/elements/1.1/"
   xmlns:cc="http://creativecommons.org/ns#"
   xmlns:rdf="http://www.w3.org/1999/02/22-rdf-syntax-ns#"
   xmlns:svg="http://www.w3.org/2000/svg"
   xmlns="http://www.w3.org/2000/svg"
   xmlns:sodipodi="http://sodipodi.sourceforge.net/DTD/sodipodi-0.dtd"
   xmlns:inkscape="http://www.inkscape.org/namespaces/inkscape"
   width="288pt"
   version="1.1"
   height="233.218pt"
   viewBox="0 0 288 233.218"
   id="svg3236"
   inkscape:version="0.48.4 r9939"
   sodipodi:docname="Crest of the Royal Malaysian Customs.svg">
  <metadata
     id="metadata3485">
    <rdf:RDF>
      <cc:Work
         rdf:about="">
        <dc:format>image/svg+xml</dc:format>
        <dc:type
           rdf:resource="http://purl.org/dc/dcmitype/StillImage" />
        <dc:title>Royal Malaysian Customs Crest</dc:title>
      </cc:Work>
    </rdf:RDF>
  </metadata>
  <sodipodi:namedview
     pagecolor="#ffffff"
     bordercolor="#666666"
     borderopacity="1"
     objecttolerance="10"
     gridtolerance="10"
     guidetolerance="10"
     inkscape:pageopacity="0"
     inkscape:pageshadow="2"
     inkscape:window-width="1024"
     inkscape:window-height="538"
     id="namedview3483"
     showgrid="false"
     inkscape:zoom="0.80954303"
     inkscape:cx="180"
     inkscape:cy="145.76125"
     inkscape:window-x="-8"
     inkscape:window-y="-8"
     inkscape:window-maximized="1"
     inkscape:current-layer="svg3236" />
  <title
     id="title3238">Royal Malaysian Customs Crest</title>
  <defs
     id="defs3240">
    <clipPath
       id="Clip0">
      <path
         d="M0 0 L289.416 0 L289.416 233.218 L0 233.218 L0 0 Z"
         transform="translate(-0.708, 0)"
         id="path3243" />
    </clipPath>
    <clipPath
       id="Clip1">
      <path
         d="M0 0 L21.8106 0 L21.8106 18.4863 L0 18.4863 L0 0 Z"
         transform="translate(265.962, 176.392)"
         id="path3246" />
    </clipPath>
    <clipPath
       id="Clip2">
      <path
         d="M0 0 L12.8574 0 L12.8574 13.1846 L0 13.1846 L0 0 Z"
         transform="translate(266.856, 179.898)"
         id="path3249" />
    </clipPath>
    <clipPath
       id="Clip3">
      <path
         d="M0 0 L21.958 0 L21.958 18.4531 L0 18.4531 L0 0 Z"
         transform="translate(0.4106, 176.425)"
         id="path3252" />
    </clipPath>
    <clipPath
       id="Clip4">
      <path
         d="M0 0 L12.8574 0 L12.8574 13.1846 L0 13.1846 L0 0 Z"
         transform="translate(8.6206, 179.898)"
         id="path3255" />
    </clipPath>
    <clipPath
       id="Clip5">
      <path
         d="M0 0 L98.2408 0 L98.2408 33.2862 L0 33.2862 L0 0 Z"
         transform="translate(4.6235, 177.998)"
         id="path3258" />
    </clipPath>
    <clipPath
       id="Clip6">
      <path
         d="M0 0 L98.2383 0 L98.2383 33.2862 L0 33.2862 L0 0 Z"
         transform="translate(185.469, 177.998)"
         id="path3261" />
    </clipPath>
    <clipPath
       id="Clip7">
      <path
         d="M0 0 L14.6885 0 L14.6885 17.3369 L0 17.3369 L0 0 Z"
         transform="translate(99.5703, 194.598)"
         id="path3264" />
    </clipPath>
    <clipPath
       id="Clip8">
      <path
         d="M0 0 L14.6905 0 L14.6905 17.3369 L0 17.3369 L0 0 Z"
         transform="translate(174.16, 194.598)"
         id="path3267" />
    </clipPath>
    <clipPath
       id="Clip9">
      <path
         d="M0 0 L113.119 0 L113.119 161.041 L0 161.041 L0 0 Z"
         transform="translate(-0.708, 29.3676)"
         id="path3270" />
    </clipPath>
    <clipPath
       id="Clip10">
      <path
         d="M0 0 L66.4434 0 L66.4434 52.8355 L0 52.8355 L0 0 Z"
         transform="translate(110.936, 20.018)"
         id="path3273" />
    </clipPath>
    <clipPath
       id="Clip11">
      <path
         d="M0 0 L53.0805 0 L53.0805 51.9834 L0 51.9834 L0 0 Z"
         transform="translate(117.693, 0)"
         id="path3276" />
    </clipPath>
    <clipPath
       id="Clip12">
      <path
         d="M0 0 L48.2827 0 L48.2827 47.8721 L0 47.8721 L0 0 Z"
         transform="translate(119.887, 117.278)"
         id="path3279" />
    </clipPath>
    <clipPath
       id="Clip13">
      <path
         d="M0 0 L89.6123 0 L89.6123 36.1982 L0 36.1982 L0 0 Z"
         transform="translate(99.4043, 197.02)"
         id="path3282" />
    </clipPath>
    <clipPath
       id="Clip14">
      <path
         d="M0 0 L50.4561 0 L50.4561 20.4043 L0 20.4043 L0 0 Z"
         transform="translate(32.3144, 185.541)"
         id="path3285" />
    </clipPath>
    <clipPath
       id="Clip15">
      <path
         d="M0 0 L60.1084 0 L60.1084 22.1582 L0 22.1582 L0 0 Z"
         transform="translate(196.15, 185.108)"
         id="path3288" />
    </clipPath>
    <clipPath
       id="Clip16">
      <path
         d="M0 0 L45.7441 0 L45.7441 12.6767 L0 12.6767 L0 0 Z"
         transform="translate(121.809, 216.067)"
         id="path3291" />
    </clipPath>
  </defs>
  <g
     id="1">
    <g
       id="Group17"
       clip-path="url(#Clip0)">
      <path
         style="fill:#092781; fill-rule:nonzero;stroke:none;"
         d="M112.227 88.8311 C112.227 82.5406 108.546 77.5533 108.546 77.5533 C105.097 72.6846 100.827 65.9117 100.827 65.9117 C95.7217 57.3648 97.8535 52.375 97.8535 52.375 C99.0459 48.2168 105.097 40.9712 105.097 40.9712 C106.641 37.6485 104.622 35.1524 104.622 35.1524 C102.134 32.6592 99.5166 34.2076 99.5166 34.2076 C88.5918 42.8731 88.711 55.4624 88.711 55.4624 C88.711 66.3868 99.2832 77.3135 99.2832 77.3135 C103.32 81.9444 103.32 84.6778 103.32 84.6778 C103.32 91.4483 97.1465 92.3985 97.1465 92.3985 C95.6026 83.4878 88.1172 78.3819 88.1172 78.3819 C74.8135 66.8638 77.1924 41.2085 77.1924 41.2085 C77.1924 34.6802 72.6807 31.4742 72.6807 31.4742 C69.5879 29.2154 69.2373 26.4844 69.2373 26.4844 C69.2373 23.397 68.0449 21.9746 68.0449 21.9746 C66.0264 20.7871 64.9571 18.4097 64.9571 18.4097 C62.5821 13.5415 56.7637 9.9766 56.7637 9.9766 C57.4766 7.0083 56.7637 6.0581 56.7637 6.0581 C55.6953 4.1582 51.7774 5.7022 51.7774 5.7022 C48.8086 6.1792 46.5518 4.396 46.5518 4.396 C43.2276 0 38.8291 2.8545 38.8291 2.8545 C34.1983 5.9395 26.2422 6.5357 26.124 6.8897 C22.0869 6.8897 22.5615 9.1455 22.5615 9.1455 C22.5615 11.7603 24.8174 12.3492 24.8174 12.3492 L24.8174 16.5078 C24.8174 20.6661 28.6221 20.7871 28.6221 20.7871 L29.9239 22.5684 L29.4531 24.4683 C27.6104 26.3086 28.3799 30.4029 28.3799 30.4029 C28.3799 34.6802 35.628 33.8511 35.628 33.8511 C38.7149 34.6802 38.2403 40.1421 38.2403 40.1421 C35.0342 38.126 29.211 37.6485 29.211 37.6485 C21.3692 37.2901 19.8252 39.4322 19.8252 39.4322 C13.7744 44.773 11.1621 45.2505 11.1621 45.2505 C8.4268 46.0791 4.1514 47.2666 4.1514 47.2666 C0 48.8106 0.9453 52.1402 0.9453 52.1402 C1.544 54.8687 4.2705 54.5122 4.2705 54.5122 C5.5811 56.1724 8.0703 55.106 8.0703 55.106 C11.2813 57.0059 15.4365 55.106 15.4365 55.106 L18.8809 52.1402 C20.3057 50.9478 22.5615 51.4253 22.5615 51.4253 C29.211 51.4253 30.6358 55.8208 30.6358 55.8208 C30.042 58.0772 25.7725 61.397 25.7725 61.397 C23.6299 62.9453 22.7989 62.2305 22.7989 62.2305 C21.0176 61.0454 19.4746 62.5894 19.4746 62.5894 C18.5244 63.1831 16.0303 65.9117 16.0303 65.9117 C17.8115 67.0992 24.1055 74.9385 24.1055 74.9385 C26.5987 72.566 30.7598 73.6324 30.7598 73.6324 C30.7598 67.6929 37.9981 68.5264 37.9981 68.5264 C37.8789 64.7266 38.7149 64.6055 38.7149 64.6055 C44.7666 71.2574 50.585 83.1343 50.585 83.1343 C51.7774 85.1504 50.8272 87.169 50.8272 87.169 C42.5147 91.4483 48.5713 110.205 48.5713 110.205 C51.0645 116.983 50.2334 119.951 50.2334 119.951 C50.2334 121.97 43.7022 123.87 43.7022 123.87 C41.4463 123.87 41.4463 122.326 41.4463 122.326 C43.1035 120.422 42.8662 117.81 42.8662 117.81 C42.8662 111.996 35.8604 112.348 35.8604 112.348 C31.1153 112.348 33.3672 124.696 33.3672 124.696 C36.9297 134.913 47.0274 134.913 47.0274 134.913 C58.7832 134.913 63.2998 131.465 63.2998 131.465 C66.0264 130.158 64.7198 126.478 64.7198 126.478 C63.8887 124.82 63.8887 122.445 63.8887 122.445 C63.8887 116.74 67.9307 114.128 67.9307 114.128 C70.4239 116.622 75.293 119.828 75.293 119.828 C82.417 125.414 81.8233 129.332 81.8233 129.332 C80.9922 140.851 73.9815 150.355 73.9815 150.355 C61.1621 149.399 62.5821 156.823 62.5821 156.823 C64.4824 158.548 66.0264 156.767 66.0264 156.767 C66.9805 160.329 72.4385 158.899 72.4385 158.899 C73.2696 161.041 79.3301 160.923 79.3301 160.923 C83.6045 160.923 84.4356 157.717 84.4356 157.717 C84.792 154.98 85.7422 153.561 85.7422 153.561 C87.0479 151.066 93.1045 148.573 93.1045 148.573 L93.1045 144.408 C98.5664 141.682 99.041 136.224 99.041 136.224 C99.041 134.794 99.4024 133.246 99.4024 133.246 C100.827 130.277 101.179 126.126 101.179 126.126 C101.179 122.326 98.5664 118.289 98.5664 118.289 C96.1914 114.964 95.959 105.697 95.959 105.697 C112.938 102.017 112.227 88.8311 112.227 88.8311 Z M35.1485 24.7652 C35.1485 24.7652 32.5977 24.941 31.1729 24.3472 L30.6973 22.8033 C30.6973 22.8033 30.9356 21.6158 30.9971 21.022 C30.9971 21.022 35.8086 20.1885 36.6914 22.5064 C36.6914 22.5064 37.4043 24.4063 35.1485 24.7652 Z"
         transform="translate(175.769, 29.3676)"
         id="path3295" />
      <path
         style="fill:#ffec00; fill-rule:nonzero;stroke:none;"
         d="M29.2393 13.0356 C30.0372 13.6558 33.6573 16.707 34.9112 19.4145 C35.9229 20.7231 38.2354 20.4858 38.4727 18.5239 C38.9053 16.4199 39.7793 11.5205 38.5059 8.0464 C38.8291 4.0327 37.2852 3.7974 36.3692 3.769 C34.3174 3.7974 33.7569 6.6186 33.5196 6.6186 C33.044 7.3335 32.5694 8.0464 32.0938 8.7563 C31.2911 9.3833 30.3985 9.5591 29.6866 9.5591 C29.5059 6.3506 32.4551 3.0542 29.9571 0.9214 C29.3487 0.1167 30.0518 0.8101 29.2393 0.209 C28.3184 0.9502 28.3418 2.8022 29.2393 5.1963 C26.2803 5.0205 24.2237 5.2246 23.545 3.769 C23.0694 1.9331 22.8135 1.7241 21.4073 0.9214 C21.4073 0.6841 21.4073 0.4443 21.4073 0.209 C20.7188 0 19.3321 1.9878 18.9375 2.2563 C13.4375 7.3291 6.17 8.4878 3.9707 9.0815 C2.1905 9.1411 0 14.0093 4.3038 14.458 C4.3038 13.7456 4.3038 13.0356 4.3038 12.3208 C4.5411 12.3208 4.7784 12.3208 5.0157 12.3208 C5.0157 13.0356 5.0157 13.7456 5.0157 14.458 C5.6954 15.5532 7.1582 15.1728 7.8711 15.1728 C7.8711 14.458 7.8711 13.7456 7.8711 13.0356 C8.1084 13.0356 8.3409 13.0356 8.5782 13.0356 C8.5782 13.7456 8.5782 14.458 8.5782 15.1728 C9.1387 16.3271 14.2452 15.7334 14.2452 15.4961 C14.7247 15.4961 18.3438 11.8721 19.2696 11.6084 C23.7491 9.915 28.0479 12.2095 29.2393 13.0356 Z"
         transform="translate(175.594, 68.7402)"
         id="path3297" />
      <path
         style="fill:#ffec00; fill-rule:nonzero;stroke:none;"
         d="M2.9112 7.3051 C2.3174 10.3925 3.1494 12.9477 3.1494 12.9477 C4.2793 14.6079 5.8233 13.2446 5.8233 13.2446 C6.4785 12.7055 8.0225 13.0639 8.0225 13.0639 C9.5616 13.9521 11.0479 14.0141 11.0479 14.0141 L11.3467 12.5893 L12.1162 12.5298 L12.0547 11.58 L12.9473 11.7558 C15.208 11.2832 14.7901 8.3169 14.7901 8.3169 C14.667 6.4716 15.2608 6.2339 15.2608 6.2339 C21.084 3.978 19.6592 1.0713 19.6592 1.0713 C16.9844 1.603 14.3721 0.8906 14.3721 0.8906 C13.6602 0 11.9405 0.4155 11.9405 0.4155 C9.7412 1.4272 3.3867 2.3774 3.3867 2.3774 C0 2.3774 0.5362 4.2177 0.5362 4.2177 C0.5362 5.8779 2.9112 7.3051 2.9112 7.3051 Z M6.9483 4.5742 C6.9483 4.5742 12.7676 4.2773 15.6787 3.8618 C15.6787 3.8618 13.7168 5.1084 13.541 7.184 C13.541 7.184 12.9473 8.1362 11.5801 7.2456 C11.5801 7.2456 10.5723 6.1748 9.086 6.5307 C9.086 6.5307 6.6543 7.4214 6.9483 4.5742 Z M11.8604 11.0742 C8.9297 10.3237 6.3789 7.1699 6.3789 7.1699 C9.5323 8.2241 11.8604 11.0742 11.8604 11.0742 Z M10.2403 12.9716 C6.3213 11.5444 5.1631 7.7778 5.1631 7.7778 C6.8731 8.7773 10.2403 12.9716 10.2403 12.9716 Z M3.5674 5.0918 C4.0274 5.0918 4.4033 5.3413 4.4033 5.6401 C4.4033 5.9467 4.0274 6.1914 3.5674 6.1914 C3.1065 6.1914 2.7266 5.9467 2.7266 5.6401 C2.7266 5.3413 3.1065 5.0918 3.5674 5.0918 Z"
         transform="translate(198.507, 34.4165)"
         id="path3299" />
      <path
         style="fill:#ffec00; fill-rule:nonzero;stroke:none;"
         d="M3.8564 1.8428 C3.6191 0 2.1894 0.0591 2.1894 0.0591 C0.4697 0.0591 0 1.1304 0 1.1304 C1.0635 2.3179 3.8564 1.8428 3.8564 1.8428 Z"
         transform="translate(216.209, 32.873)"
         id="path3301" />
      <path
         style="fill:#ffec00; fill-rule:nonzero;stroke:none;"
         d="M67.2276 128.886 C67.6494 128.197 67.8252 127.441 67.2276 126.748 C65.1182 127.186 63.6074 128.012 62.416 129.418 C61.5938 130.515 60.169 130.201 60.2119 129.888 C61.9932 126.644 65.1133 124.117 67.251 121.029 C67.7832 120.004 67.4121 117.724 66.9805 116.579 C66.6719 116.176 65.5557 116.176 65.2656 117.306 C63.3281 117.853 63.6416 117.477 63.1279 119.448 C61.8174 120.812 60.5967 119.923 60.834 119.923 C60.9717 117.025 63.3135 114.333 65.8692 113.24 C66.5811 112.124 66.2246 111.051 65.9776 110.177 C65.4317 108.243 65.1133 108.291 63.7315 108.158 C63.6416 111.55 60.3447 115.511 57.8565 114.931 C59.0244 112.728 60.1504 110.899 60.2119 107.45 C60.3447 106.738 60.3447 105.974 62.7959 104.819 C63.6416 104.644 64.0781 103.057 64.5528 101.632 C64.0879 101.347 63.5987 101.39 62.9766 101.927 C62.0264 103.114 60.5108 104.012 59.5654 105.19 C59.3281 105.19 55.2862 110.419 55.2862 110.889 C54.4697 111.725 53.4863 111.725 53.1299 111.236 C53.1299 110.281 52.8926 108.543 53.7998 107.541 C55.4668 105.641 61.6367 100.013 63.1279 96.6445 C60.6153 97.167 59.1475 98.0078 56.7158 100.202 C56.251 100.544 55.2393 100.9 55.0059 100.9 C55.6279 98.4453 58.7158 95.1299 60.7012 94.0469 C60.7012 93.0918 60.9912 92.6026 60.9912 91.6524 C58.459 92.2891 51.7617 97.1055 50.5274 99.0479 C50.0479 99.0479 49.5723 99.0479 49.0977 99.0479 C48.7227 96.8486 58.0938 88.4942 59.8555 87.4971 C60.4356 86.875 60.2783 86.666 60.2783 85.9531 C59.5654 85.9531 58.3408 85.9815 57.2295 86.5186 C57.832 85.1934 59.2334 83.6231 58.834 82.5977 C58.1651 81.9751 57.4473 82.1084 56.7158 82.3906 C55.2344 83.0488 48.3233 90.0899 47.4492 91.6524 C47.0742 92.0371 46.5996 92.3985 46.3613 92.3985 C45.5166 88.3848 52.5078 81.6904 53.2207 81.2178 C54.2461 80.0586 53.8184 77.3872 53.5762 75.96 C53.4863 75.4277 50.8174 75.6485 49.6582 76.6294 C49.0313 77.0762 43.958 79.8379 42.044 83.5313 C42.044 83.7705 41.374 84.4209 41.0371 83.8154 C40.3965 78.9927 41.5977 78.0542 43.4219 76.4536 C44.2715 75.7842 49.5723 73.4473 50.7695 72.0435 C51.3487 71.4165 51.5293 68.5694 45.3115 70.9917 C44.3623 70.9917 41.8682 71.4048 40.919 71.4048 C40.919 71.1699 41.2412 70.0108 43.8867 69.5645 C44.8799 68.8589 45.9483 68.3389 46.7412 67.4268 C46.9746 67.4268 47.4492 66.4771 47.4492 66.0044 C46.2666 65.7647 45.2217 65.6743 43.8867 66.0044 C39.6983 67.0991 34.4971 67.1279 36.9668 66.0283 C38.6289 65.5557 42.961 64.6055 44.6846 63.5347 C45.6348 62.4683 45.7871 61.4898 46.0244 60.3023 C44.3672 60.5401 39.8164 62.4683 33.7608 61.6963 C33.7608 61.4614 40.9707 59.0508 45.1602 58.8467 C45.3975 58.1319 45.0742 57.4502 45.3115 56.7378 C40.0401 56.7212 35.6465 56.7427 32.0938 56.5288 C34.293 54.332 42.7139 53.6861 44.9229 53.6812 C45.6348 52.4917 45.3115 50.563 45.3115 48.9028 C45.0742 48.9028 44.8037 46.3169 36.7627 52.4629 C36.0498 52.4629 34.3545 52.4917 33.6416 52.4917 C33.1055 51.1875 34.9863 47.0176 43.5547 44.3599 C45.2783 43.8208 46.4658 40.4365 43.8867 39.6387 C39.2891 39.6602 36.2686 40.9663 34.625 43.9136 C33.585 45.0083 32.5733 45.3667 32.3311 45.3667 C32.8252 43.4243 33.8223 42.042 35.3379 40.3486 C31.3858 41.2681 29.7237 44.2959 28.2129 46.0508 C26.3985 48.2168 24.1758 47.4756 23.2256 47.4756 C23.2256 47.2383 21.8242 47.6231 22.5137 46.0508 C24.1992 44.1797 28.417 41.3272 29.6377 40.3486 C31.4522 39.0591 33.3194 38.1333 35.4854 37.3496 C36.6104 36.5205 35.542 32.0654 37.4746 28.9497 C39.4697 28.4439 40.8233 27.021 41.0371 26.0996 C41.1797 25.1758 38.1211 21.8794 32.0938 34.856 C26.3369 35.5088 16.3623 34.9771 15.9444 34.4995 C15.9444 34.2622 16.8086 33.4644 16.8086 33.2241 C18.9512 32.728 18.4053 32.0488 18.9463 31.8018 C24.6748 30.4053 25.919 26.5772 27.501 23.2476 C27.7383 23.2476 28.6885 20.3975 28.9258 20.3975 C29.1631 19.9229 29.3955 19.4478 29.6377 18.9727 C30.9112 18.7637 32.2119 17.8472 32.749 16.9849 C33.9981 14.3111 31.8604 11.1074 29.0059 8.7276 C26.9922 6.8277 23.7246 4.1582 25.3584 4.0088 C29.0059 4.1582 28.8926 0 26.6358 0.2398 C23.0117 0.3565 19.9815 1.9595 16.7188 2.4986 C16.7188 2.7334 16.0967 3.0591 16.0967 3.2988 C15.1465 4.0088 14.2012 4.7236 13.251 5.4361 C13.332 7.8301 13.2178 8.0435 14.6719 8.9961 C14.6719 9.711 14.6719 10.4258 14.6719 11.1382 C14.2871 12.354 13.2178 9.5186 11.1143 8.9961 C11.1143 9.711 11.1143 10.4258 11.1143 11.1382 C10.9004 11.5205 10.6016 11.7554 10.3633 11.7554 C9.8223 13.6958 10.2256 12.7578 8.2598 13.2705 C8.502 15.4009 8.3262 15.2276 9.6846 16.1231 C9.6846 17.0728 9.6846 18.023 9.6846 18.9727 C9.4473 18.9727 9.1143 19.3574 8.8819 19.3574 C6.8584 20.3692 3.6045 19.8277 2.0518 19.1817 C1.0069 21.167 0 25.2046 2.5264 27.1377 C9.1758 29.0991 10.1592 23.7246 10.3965 22.5376 C13.2139 23.2808 14.4385 21.8252 14.6719 21.1104 C14.876 20.6045 16.125 17.9351 16.3623 17.9351 C17.583 15.1685 16.2197 15.6221 16.8086 13.2705 C16.7803 10.5684 17.9961 11.1382 18.2383 11.1382 C18.4766 12.086 18.7139 13.0357 18.9463 13.9854 C19.4258 13.9854 20.5801 14.1328 21.0557 14.1328 C20.4658 15.0567 19.7344 14.9829 18.794 15.5576 C18.4385 16.0943 19.0938 19.6543 18.2383 21.1104 C16.3389 23.2476 14.4385 25.3848 12.5342 27.5269 C11.166 28.2964 9.9072 27.1568 8.9717 28.2373 C10.5684 29.9732 11.043 32.0181 11.1143 35.3618 C11.584 35.3618 13.6934 36.5205 13.959 38.2114 C14.3389 39.9619 14.3389 41.624 13.6319 44.0586 C12.4678 48.25 14.4717 55.98 16.0967 57.4502 C16.0967 57.6924 26.3848 54.9922 26.7881 54.6001 C27.0254 54.6001 28.2988 54.2749 28.8926 54.6289 C28.8926 55.106 27.168 55.9966 26.5127 56.709 C25.0928 58.3692 23.9385 59.3526 22.5137 61.0147 C21.4639 61.6963 20.1338 61.7251 19.6631 61.7251 C19.3311 65.4937 20.3994 66.565 21.8008 67.4268 C24.8594 67.479 29.5762 67.3867 31.0625 66.0044 C31.3008 66.0044 31.5381 66.0044 31.7754 66.0044 C30.5117 68.1441 27.5674 69.5049 25.211 70.4834 C25.3018 74.6821 26.4844 74.7295 28.5928 76.4204 C30.4981 76.898 33.4043 77.0191 37.086 74.877 C36.6582 76.5606 32.7256 79.541 32.4834 79.541 C31.6231 81.0537 33.7608 82.7783 33.9981 84.2002 C33.5996 84.9942 30.9112 84.1074 30.3457 84.5283 C29.1865 86.6944 31.6612 92.9922 33.2002 94.2363 C33.2002 94.4746 33.2002 94.7119 33.2002 94.9492 C26.4561 93.2871 28.417 84.3809 26.0996 82.8662 C23.9004 81.9111 23.4629 83.1055 23.2256 83.1055 C21.2881 91.1494 27.168 90.0811 30.3457 95.9277 C28.1992 95.0254 26.5606 94.4551 23.2256 94.5078 C22.2666 100.502 28.4649 100.046 31.3526 103.352 C30.1367 103.816 28.1133 103.76 26.0713 103.769 C25.1211 105.047 25.3018 108.87 26.0996 111.098 C28.3408 111.691 29.3057 112.438 31.0625 113.748 C31.0625 113.981 31.0625 114.219 31.0625 114.461 C29.8897 115.14 27.0635 114.114 26.2803 113.948 C25.667 114.751 25.8428 114.323 25.0303 114.931 C27.168 116.09 27.8809 116.627 28.2129 118.019 C26.2803 116.712 24.3184 118.228 22.8028 116 C22.1338 116.627 19.3311 118.309 16.8086 118.735 C15.4414 119.097 12.2774 119.41 12.3399 116.712 C11.627 116.712 11.8028 116.489 10.3779 116.755 C10.3779 116.28 9.3428 115.302 8.8623 115.06 C9.1045 114.347 9.086 113.055 8.8623 112.39 C9.5752 112.39 11.1143 112.318 11.8223 112.318 C11.5274 109.321 10.2403 107.541 7.6465 107.778 C7.5186 111.564 7.086 115.269 6.3594 118.868 C6.8438 120.868 7.6231 122.673 8.7295 123.794 C9.4473 124.739 12.249 126.953 15.3838 127.998 C19.7725 129.536 28.5928 128.068 30.9541 127.043 C38.1211 124.549 35.7647 120.987 35.1856 119.334 C34.4737 117.644 34.6963 112.214 36.7627 110.177 C37.2617 109.616 37.8887 109.065 38.5195 108.648 C39.2656 107.019 38.0352 106.054 38.0352 106.054 C34.4112 100.829 36.1358 93.5811 36.1358 93.5811 C36.9102 93.7617 36.7862 94.4121 36.7862 94.4121 C35.6983 101.157 40.9141 107.959 41.0371 108.044 C44.1817 112.038 47.4307 111.815 53.1494 119.448 C54.3369 121.163 55.7139 123.21 53.5762 129.888 C53.1299 131.19 51.211 139.136 46.5801 145.102 C44.9082 145.543 43.4688 144.992 40.2158 145.439 C36.2539 145.88 34.7871 149.129 35.0957 150.607 C35.585 151.718 36.7012 151.623 37.4131 151.043 C37.6504 150.516 37.6504 149.988 37.4746 149.371 C37.7129 149.371 37.9502 149.371 38.1875 149.371 C38.1875 150.084 38.4629 151.647 40.2871 152.625 C41.2744 152.881 42.4434 153.413 44.1817 152.335 C45.0274 151.761 44.6045 151.343 45.2979 151.357 C43.4219 154.919 52.2988 155.08 53.1299 154.34 C55.4483 152.962 54.3604 152.321 55.3623 149.315 C57.5 144.142 63.0899 142.954 63.7793 142.584 C63.8028 140.484 63.2705 139.378 63.6836 137.069 C63.332 136.039 60.0215 135.734 56.293 135.815 C56.7822 133.858 63.0098 133.82 65.2656 133.697 C66.002 132.871 65.4697 130.876 64.5528 130.843 C64.1299 129.76 65.9776 129.408 67.2276 128.886 Z M12.6817 33.0747 C11.6367 30.4336 16.8945 25.5347 17.5264 24.6748 C19.3877 22.979 19.8633 22.9224 21.5254 21.9722 C22.4756 21.2598 22.9551 19.4194 22.5137 13.9854 C22.5137 12.5747 21.6445 6.7686 23.2256 8.9961 C23.957 12 26.6358 15.6172 24.499 21.7324 C23.7246 23.1597 22.6563 24.3472 19.4502 25.418 C18.1436 26.957 16.2442 29.1538 14.999 32.8989 C13.6934 34.2027 12.8858 33.7588 12.6817 33.0747 Z"
         transform="translate(203.703, 35.0102)"
         id="path3303" />
      <path
         style="fill:#ffec00; fill-rule:nonzero;stroke:none;"
         d="M2.0761 6.2959 C2.2519 7.4263 1.9004 8.9106 1.9004 8.9106 C1.6054 9.9224 0 11.3447 0 11.3447 L0.6562 11.4609 C2.2519 9.9224 5.0449 9.3833 5.0449 9.3833 C9.2002 8.7895 9.3242 5.3457 9.3242 5.3457 C9.5615 3.4458 8.4316 4.2793 8.4316 4.2793 C6.4121 6.417 3.7959 6.4736 3.7959 6.4736 C4.2754 3.8022 6.6504 2.3794 6.6504 2.3794 C8.7871 1.0713 8.5498 0.2373 8.5498 0.2373 C6.5927 0 4.6318 1.3086 4.6318 1.3086 C1.6054 3.3892 2.0761 6.2959 2.0761 6.2959 Z"
         transform="translate(239.363, 63.2734)"
         id="path3305" />
      <path
         style="fill:#ffec00; fill-rule:nonzero;stroke:none;"
         d="M0.2988 10.6298 C0 13.8383 3.7422 13.0639 3.7422 13.0639 C4.6924 12.4702 4.9922 11.582 4.9922 11.582 C5.2246 8.851 8.0176 5.8183 8.0176 5.8183 C10.5107 3.6264 10.748 2.021 10.748 2.021 C11.0429 0 8.9668 0.5937 8.9668 0.5937 C1.6621 3.2036 0.2988 10.6298 0.2988 10.6298 Z"
         transform="translate(230.397, 54.0708)"
         id="path3307" />
      <g
         id="Group1"
         clip-path="url(#Clip1)">
        <path
           style="fill:#ffec00; fill-rule:nonzero;stroke:none;"
           d="M0.5938 17.2178 C0.5938 17.2178 0 15.6748 1.6621 12.7012 C1.6621 12.7012 11.6416 3.7998 15.085 1.6582 C15.085 1.6582 17.5781 0 19.1221 1.9004 C19.1221 1.9004 21.2735 3.6387 16.168 9.6944 C16.168 9.6944 11.1611 14.7198 6.1787 17.6885 L0.5938 17.2178 Z"
           transform="translate(266.499, 176.634)"
           id="path3310" />
        <path
           style="fill:#092781; fill-rule:nonzero;stroke:none;"
           d="M15.3223 1.4589 C11.8936 3.5869 2.252 12.1835 1.8428 12.5488 L1.7813 12.6064 L1.7334 12.6865 C0 15.7841 0.5654 17.4648 0.6318 17.6503 L0.751 17.9638 L6.8399 18.4863 L6.9873 18.3964 C11.9746 15.4228 16.876 10.5214 17.0801 10.3125 C19.6162 7.3154 20.7988 4.916 20.6279 3.1494 C20.5381 2.1904 20.0488 1.7724 19.9961 1.7246 L20.0723 1.8056 C18.6094 0 16.3252 0.7841 15.3223 1.4589 Z M15.9024 2.3564 C16.002 2.2949 18.0254 0.9785 19.2461 2.4794 L19.2647 2.5039 L19.3076 2.5419 C19.3125 2.5507 19.5742 2.8173 19.5742 3.496 C19.5742 4.4892 19.0176 6.3652 16.2969 9.5898 C16.2774 9.6093 11.4043 14.4726 6.5742 17.3847 C6.2647 17.3603 2.2656 17.0185 1.5869 16.9619 C1.5772 16.871 1.5674 16.7998 1.5674 16.6718 C1.5674 16.0302 1.7432 14.8857 2.6318 13.2802 C3.4014 12.5917 12.6582 4.3701 15.9024 2.3564 Z"
           transform="translate(265.962, 176.392)"
           id="path3312" />
      </g>
      <g
         id="Group2"
         clip-path="url(#Clip2)">
        <path
           style="fill:#ffec00; fill-rule:nonzero;stroke:none;"
           d="M12.2305 0 C12.2305 0 11.2803 2.7353 11.8789 6.5351 C11.8789 6.5351 5.3487 9.2617 2.0186 12.2353 C2.0186 12.2353 1.544 12.4678 0 12.1162 "
           transform="translate(266.974, 180.074)"
           id="path3315" />
        <path
           style="fill:#092781; fill-rule:nonzero;stroke:none;"
           d="M11.2607 4.1846 C11.2607 4.8496 11.3369 5.5947 11.4365 6.3643 C10.0361 6.9775 4.8584 9.3233 1.8896 11.9219 C1.7851 11.9453 1.3339 12.0215 0.2373 11.7695 L0 12.8145 C1.6045 13.1846 2.2226 12.9668 2.3789 12.8858 L2.4404 12.8525 L2.4931 12.8047 C5.7138 9.9365 12.1347 7.2334 12.2011 7.2002 L12.5859 7.0391 L12.5244 6.6309 C11.9589 3.0156 12.8476 0.3848 12.8574 0.3516 L11.8505 0 C11.8164 0.085 11.2607 1.7149 11.2607 4.1846 Z"
           transform="translate(266.856, 179.898)"
           id="path3317" />
      </g>
      <g
         id="Group3"
         clip-path="url(#Clip3)">
        <path
           style="fill:#ffec00; fill-rule:nonzero;stroke:none;"
           d="M20.8277 17.2178 C20.8277 17.2178 21.4214 15.6748 19.7564 12.7012 C19.7564 12.7012 9.7823 3.7998 6.3384 1.6582 C6.3384 1.6582 3.8448 0 2.3013 1.9004 C2.3013 1.9004 0 3.4864 5.1084 9.5479 C5.1084 9.5479 10.2569 14.7198 15.2466 17.6885 L20.8277 17.2178 Z"
           transform="translate(0.4106, 176.634)"
           id="path3320" />
        <path
           style="fill:#092781; fill-rule:nonzero;stroke:none;"
           d="M0.7055 1.7011 C0.5795 1.7959 0.1425 2.1904 0.0263 3.0546 C0.0097 3.1972 0 3.3447 0 3.496 C0 5.163 1.1567 7.3867 3.4482 10.1035 C3.6928 10.3457 8.7348 15.3896 13.7221 18.3632 L13.8715 18.4531 L19.956 17.9306 L20.0747 17.6171 C20.146 17.4316 20.7089 15.7509 18.9751 12.6533 L18.9301 12.5732 L18.8662 12.5156 C18.455 12.1503 8.8154 3.5537 5.3696 1.4111 C4.3984 0.7695 2.1709 0 0.7055 1.7011 Z M4.2368 9.3808 C1.5463 6.1796 1.0688 4.3603 1.0688 3.4775 C1.0688 3.4062 1.0737 3.3349 1.0805 3.2773 C1.1303 2.7412 1.3632 2.5419 1.3725 2.5322 L1.4155 2.499 L1.4653 2.4462 C2.6811 0.9453 4.7094 2.2617 4.7949 2.3183 C8.0483 4.3271 17.3081 12.5585 18.0776 13.247 C18.9658 14.8525 19.144 15.997 19.144 16.6386 C19.144 16.7666 19.1318 16.8378 19.1225 16.9287 C18.4409 16.9853 14.4462 17.3271 14.1303 17.3515 C9.3046 14.4394 4.2866 9.4287 4.2368 9.3808 Z"
           transform="translate(1.6597, 176.425)"
           id="path3322" />
      </g>
      <g
         id="Group4"
         clip-path="url(#Clip4)">
        <path
           style="fill:#ffec00; fill-rule:nonzero;stroke:none;"
           d="M0 0 C0 0 0.9497 2.7353 0.356 6.5351 C0.356 6.5351 6.8872 9.2617 10.2144 12.2353 C10.2144 12.2353 10.689 12.4678 12.2329 12.1162 "
           transform="translate(9.124, 180.074)"
           id="path3325" />
        <path
           style="fill:#092781; fill-rule:nonzero;stroke:none;"
           d="M0 0.3516 C0.0068 0.375 0.895 3.0156 0.3325 6.6309 L0.2681 7.0391 L0.6528 7.2002 C0.7192 7.2334 7.1436 9.9365 10.3613 12.8047 L10.4136 12.8525 L10.4775 12.8858 C10.6299 12.9668 11.2495 13.1846 12.8574 12.8145 L12.6152 11.7695 C11.5181 12.0215 11.0688 11.9453 10.9644 11.9219 C7.9961 9.3233 2.8188 6.9775 1.4199 6.3643 C1.52 5.5947 1.5908 4.8496 1.5908 4.1846 C1.5908 1.7149 1.04 0.085 1.0068 0 L0 0.3516 Z"
           transform="translate(8.6206, 179.898)"
           id="path3327" />
      </g>
      <g
         id="Group5"
         clip-path="url(#Clip5)">
        <path
           style="fill:#ffec00; fill-rule:nonzero;stroke:none;"
           d="M95.8393 18.5235 C95.8393 18.5235 91.9209 0 72.3261 0 C72.3261 0 64.4868 0.1758 54.3339 4.8018 C54.3339 4.8018 11.0454 22.2617 0 7.1201 C0 7.1201 10.333 24.7559 25.4751 31.5332 C25.4751 31.5332 27.0781 32.2364 32.9555 29.7422 C32.9555 29.7422 72.5044 11.043 97.0864 27.6104 L95.8393 18.5235 Z"
           transform="translate(5.0845, 178.535)"
           id="path3330" />
        <path
           style="fill:#092781; fill-rule:nonzero;stroke:none;"
           d="M54.5742 4.8594 C54.1656 5.0205 11.5679 21.9824 0.8955 7.3438 L0 7.9278 C0.1045 8.1084 10.5943 25.791 25.7173 32.5498 C25.9048 32.6358 27.7051 33.2862 33.6255 30.7783 C34.0391 30.5791 73.2051 12.3779 97.2505 28.5889 L98.2408 29.2539 L96.8277 18.9658 L96.8252 18.9473 C96.7847 18.7569 92.586 0 72.7871 0 C72.4497 0.0049 64.71 0.2334 54.5742 4.8594 Z M54.9947 5.8379 C64.9405 1.3067 72.7207 1.0742 72.7989 1.0742 C91.6553 1.0742 95.5977 18.3252 95.7754 19.1563 C95.7827 19.1983 96.6328 25.4063 96.8658 27.1113 C72.2549 11.666 33.583 29.6153 33.1885 29.7998 C27.7837 32.0938 26.1475 31.5713 26.1328 31.5625 C15.5699 26.8457 7.3101 16.6485 3.4033 11.1289 C17.8755 20.6094 53.3584 6.4932 54.9947 5.8379 Z"
           transform="translate(4.6235, 177.998)"
           id="path3332" />
      </g>
      <g
         id="Group6"
         clip-path="url(#Clip6)">
        <path
           style="fill:#ffec00; fill-rule:nonzero;stroke:none;"
           d="M1.249 18.5235 C1.249 18.5235 5.168 0 24.7608 0 C24.7608 0 32.6026 0.1758 42.7569 4.8018 C42.7569 4.8018 86.041 22.2617 97.084 7.1201 C97.084 7.1201 86.7588 24.7559 71.6162 31.5332 C71.6162 31.5332 70.0108 32.2364 64.1309 29.7422 C64.1309 29.7422 24.585 11.043 0 27.6104 L1.249 18.5235 Z"
           transform="translate(186.157, 178.535)"
           id="path3335" />
        <path
           style="fill:#092781; fill-rule:nonzero;stroke:none;"
           d="M1.4151 18.9473 L1.4063 18.9893 L0 29.2539 L0.9883 28.5889 C25.0313 12.3779 64.2022 30.5791 64.5918 30.7598 C70.5332 33.2862 72.3331 32.6358 72.5186 32.5498 C87.6465 25.791 98.1289 8.1084 98.2383 7.9278 L97.3457 7.3438 C86.6729 21.9824 44.0723 5.0205 43.6407 4.8496 C33.5284 0.2334 25.7862 0.0049 25.4629 0 C5.6524 0 1.4532 18.7569 1.4151 18.9473 Z M25.4493 1.0742 C25.5206 1.0742 33.2959 1.3067 43.2227 5.8281 C44.875 6.4932 80.3653 20.6094 94.8331 11.1289 C90.9239 16.6485 82.6592 26.8457 72.0821 31.5811 C72.0909 31.5713 70.4522 32.0938 65.0284 29.791 C64.6534 29.6153 25.9805 11.666 1.3731 27.1113 C1.6055 25.4063 2.4561 19.1983 2.46 19.1563 C2.6407 18.3252 6.5831 1.0742 25.4493 1.0742 Z"
           transform="translate(185.469, 177.998)"
           id="path3337" />
      </g>
      <g
         id="Group7"
         clip-path="url(#Clip7)">
        <path
           style="fill:#ffec00; fill-rule:nonzero;stroke:none;"
           d="M0.9854 2.6836 C0.9854 2.6836 0 0 11.1592 1.1777 L14.0474 3.3438 L9.124 16.4717 C9.124 16.4717 1.5767 10.6963 0.9854 2.6836 Z"
           transform="translate(99.5703, 194.598)"
           id="path3340" />
        <path
           style="fill:#092781; fill-rule:nonzero;stroke:none;"
           d="M0.3491 1.667 C0.0068 2.1094 0 2.5791 0.0996 2.8457 L0.0688 2.7032 C0.6694 10.8584 8.0981 16.6289 8.4165 16.8711 L8.9863 17.3135 L14.3037 3.1348 L10.979 0.6416 L10.8315 0.6221 C4.9038 0 1.3774 0.3428 0.3491 1.667 Z M1.1328 2.627 L1.1328 2.6036 L1.1137 2.5176 L1.1137 2.5079 C1.1137 2.4747 1.1255 2.3897 1.2348 2.2754 C1.6411 1.8428 3.3818 0.9317 10.5776 1.6768 C10.7744 1.8291 12.539 3.1446 13.0234 3.5059 C12.7719 4.1758 8.9648 14.3301 8.5068 15.5557 C6.7895 14.0547 1.6079 9.044 1.1328 2.627 Z"
           transform="translate(99.9551, 194.621)"
           id="path3342" />
      </g>
      <g
         id="Group8"
         clip-path="url(#Clip8)">
        <path
           style="fill:#ffec00; fill-rule:nonzero;stroke:none;"
           d="M13.0664 2.6836 C13.0664 2.6836 14.0498 0 2.8926 1.1777 L0 3.3438 L4.9258 16.4717 C4.9258 16.4717 12.4775 10.6963 13.0664 2.6836 Z"
           transform="translate(174.801, 194.598)"
           id="path3345" />
        <path
           style="fill:#092781; fill-rule:nonzero;stroke:none;"
           d="M3.4766 0.6221 L3.3292 0.6416 L0 3.1348 L5.3194 17.3135 L5.8897 16.8711 C6.2071 16.6289 13.6358 10.8584 14.2393 2.7032 L14.2061 2.8457 C14.3057 2.5791 14.3057 2.1094 13.959 1.667 C12.9288 0.3428 9.3995 0 3.4766 0.6221 Z M13.0704 2.2754 C13.1797 2.3897 13.1944 2.4747 13.1944 2.5079 L13.1895 2.5411 L13.1709 2.627 C12.7002 9.044 7.5186 14.0547 5.8038 15.5557 C5.3428 14.3301 1.5381 4.1758 1.2823 3.5059 C1.7667 3.1446 3.5333 1.8291 3.7286 1.6768 C10.9288 0.9317 12.6622 1.8428 13.0704 2.2754 Z"
           transform="translate(174.16, 194.621)"
           id="path3347" />
      </g>
      <path
         style="fill:#092781; fill-rule:nonzero;stroke:none;"
         d="M134.735 67.3608 C134.735 104.565 104.565 134.735 67.3647 134.735 C30.1606 134.735 0 104.565 0 67.3608 C0 30.163 30.1606 0 67.3647 0 C104.565 0 134.735 30.163 134.735 67.3608 Z"
         transform="translate(76.6626, 73.1338)"
         id="path3349" />
      <path
         style="fill:#ffffff; fill-rule:nonzero;stroke:none;"
         d="M119.364 59.6782 C119.364 92.6411 92.6377 119.363 59.6797 119.363 C26.7193 119.363 0 92.6411 0 59.6782 C0 26.7221 26.7193 0 59.6797 0 C92.6377 0 119.364 26.7221 119.364 59.6782 Z"
         transform="translate(84.3476, 80.8164)"
         id="path3351" />
      <path
         style="fill:#092781; fill-rule:nonzero;stroke:none;"
         d="M105.137 57.0015 C96.7778 44.7378 80.8657 38.8716 74.3257 36.896 L65.5483 19.854 C66.8218 16.2417 69.0161 10.2334 70.4595 7.355 L57.8013 4.8208 L55.3179 0 L53.2964 3.9234 L51.4585 3.5528 C51.4585 3.5528 1.3418 27.0708 1.3418 52.2466 C1.3418 52.2466 0 64.8189 16.9468 74.4712 L8.0058 91.8218 L58.1098 91.8218 C52.8071 94.5474 49.081 96.1861 49.081 96.1861 L42.4316 112.578 L60.0054 116.852 C77.48 109.524 89.7056 99.3355 97.0718 91.8218 L102.629 91.8218 L100.644 87.9741 C103.978 84.189 105.612 81.6997 105.612 81.6997 C113.924 68.396 105.137 57.0015 105.137 57.0015 Z M34.6396 40.1353 L20.0698 68.4058 C18.7046 63.9693 16.2251 50.0239 34.6396 40.1353 Z M76.2309 40.5913 C95.9223 49.5825 93.9751 59.6089 93.9751 59.6089 C93.9751 62.4732 92.6743 65.4126 90.5268 68.3345 L76.2309 40.5913 Z"
         transform="translate(88.8003, 81.3935)"
         id="path3353" />
      <path
         style="fill:#ffec00; fill-rule:nonzero;stroke:none;"
         d="M6.2081 7.3647 C8.0225 5.6094 8.0127 1.8716 6.0557 0.7129 C4.3653 0 1.6905 0.625 0 3.6528 C2.4219 4.1704 4.9112 5.7329 6.2081 7.3647 Z"
         transform="translate(272.735, 63.7197)"
         id="path3355" />
      <path
         style="fill:#ffec00; fill-rule:nonzero;stroke:none;"
         d="M8.2168 3.3838 C7.5049 2.8471 5.1914 0.2637 1.7149 0 C0.9122 0.9785 0.4698 1.7832 0 2.7309 C2.9639 3.2036 5.8516 5.5215 6.7022 5.9653 C6.9444 5.4927 7.5997 4.2744 8.2168 3.3838 Z"
         transform="translate(268.969, 69.7783)"
         id="path3357" />
      <path
         style="fill:#ffec00; fill-rule:nonzero;stroke:none;"
         d="M6.1465 5.5552 C6.7588 4.7476 6.8633 3.8594 7.7519 2.7027 C6.1465 1.0997 3.8047 0.0645 1.1309 0 C0.6269 1.0997 0.0908 2.4346 0 3.9473 C2.3135 3.7691 4.0996 4.396 6.1465 5.5552 Z"
         transform="translate(266.408, 75.3588)"
         id="path3359" />
      <path
         style="fill:#ffec00; fill-rule:nonzero;stroke:none;"
         d="M6.8584 4.4502 C6.4121 3.1157 6.3213 1.6054 6.6826 0.1806 C4.3076 0.1806 2.669 0 0.2656 0.4463 C0 2.6719 0.2656 4.187 0.8027 6.3242 C3.1152 5.0776 6.7061 4.4839 6.8584 4.4502 Z"
         transform="translate(265.074, 82.4243)"
         id="path3361" />
      <path
         style="fill:#ffec00; fill-rule:nonzero;stroke:none;"
         d="M18.7041 11.1597 C18.3476 8.7871 18.7041 6.5879 18.7041 5.6382 C16.9844 4.5718 15.0234 1.3042 14.7851 0.5938 C14.3105 0.5938 13.8926 0 13.4219 0 C13.2422 1.3633 13.4219 2.0166 14.2246 2.9996 C14.6055 7.1226 12.168 3.7383 11.9355 3.7383 C11.6982 5.4004 11.3994 6.6499 11.8174 8.6968 C11.6035 8.6968 10.8906 8.6709 10.1543 8.6709 C9.8555 6.5288 9.7412 6.1153 9.081 5.6382 C7.3613 6.3531 6.5879 7.4786 3.206 6.0562 C2.4931 6.1748 1.3535 7.4952 0 8.8467 C0 9.813 0 9.9439 0 9.958 L0 9.958 C0 9.958 0 9.9649 0 9.9722 C1.0683 10.7466 6.5351 17.0376 6.5351 17.2798 C6.5351 17.2798 8.668 15.7359 11.9355 15.8526 C11.9355 14.8999 11.7597 14.1875 12.168 13.3614 C13.6601 12.2305 15.3369 11.1836 18.7041 11.1597 Z"
         transform="translate(193.463, 85.9008)"
         id="path3363" />
      <path
         style="fill:#ffec00; fill-rule:nonzero;stroke:none;"
         d="M0 2.4887 C0.4414 4.0966 1.7764 6.082 1.7764 6.3242 C3.6807 5.372 7.419 3.6479 7.6563 3.6479 C7.1524 2.2773 6.5918 1.6006 5.9649 0 C2.7549 0.3559 1.6006 1.4223 0 2.4887 Z"
         transform="translate(267.482, 91.0664)"
         id="path3365" />
      <path
         style="fill:#ffec00; fill-rule:nonzero;stroke:none;"
         d="M7.5048 3.3604 C6.5263 1.8452 5.9892 1.2183 5.2822 0.1519 C3.4384 0 1.0214 2.3296 0 2.8877 C0.5507 3.8897 2.5175 6.2388 2.5175 6.4761 C4.1845 5.5264 5.8466 4.3076 7.5048 3.3604 Z"
         transform="translate(271.818, 98.1269)"
         id="path3367" />
      <path
         style="fill:#ffec00; fill-rule:nonzero;stroke:none;"
         d="M0 2.375 C0.3798 3.2939 1.8662 5.0464 2.0468 6.1152 C2.2841 6.1152 7.1289 4.664 7.3662 4.664 C6.8916 3.2368 5.8183 1.665 5.3427 0.2373 C4.6308 0 1.4248 0.684 0 2.375 Z"
         transform="translate(277.276, 105.612)"
         id="path3369" />
      <path
         style="fill:#ffec00; fill-rule:nonzero;stroke:none;"
         d="M7.4766 0.0879 C5.1016 0.0879 3.3486 0 0.9785 0 C0.9785 1.185 0.6221 2.0469 0 3.2939 C2.3701 3.7695 5.3438 4.3935 7.7236 4.8681 C8.1885 3.3848 8.1035 1.4228 7.4766 0.0879 Z"
         transform="translate(279.062, 115.382)"
         id="path3371" />
      <path
         style="fill:#ffec00; fill-rule:nonzero;stroke:none;"
         d="M1.5146 0 C0.8027 0 0.7119 0.7129 0 0.7129 C0.6269 1.5156 1.1592 1.9619 1.4013 2.8212 C2.6172 4.8691 4.251 8.9961 4.251 9.2334 C5.8799 8.6396 7.751 7.0341 7.4804 6.0556 C5.4287 4.8779 3.5664 1.6005 1.5146 0 Z"
         transform="translate(276.117, 120.992)"
         id="path3373" />
      <path
         style="fill:#ffec00; fill-rule:nonzero;stroke:none;"
         d="M0.622 0.1465 C0.3847 2.0517 0.2373 5.372 0 7.2763 C1.8671 7.1904 2.4179 6.9912 3.5625 6.5586 C3.3251 4.9013 2.665 1.6621 2.4316 0 C1.7148 0 1.3349 0.1465 0.622 0.1465 Z"
         transform="translate(271.818, 126.516)"
         id="path3375" />
      <g
         id="Group9"
         clip-path="url(#Clip9)">
        <path
           style="fill:#092781; fill-rule:nonzero;stroke:none;"
           d="M16.9824 105.697 C16.9824 105.697 16.7451 114.964 14.3701 118.289 C14.3701 118.289 11.7578 122.326 11.7578 126.126 C11.7578 126.126 12.1118 130.277 13.539 133.246 C13.539 133.246 13.8955 134.794 13.8955 136.224 C13.8955 136.224 14.3701 141.682 19.8325 144.408 L19.8325 148.573 C19.8325 148.573 25.8882 151.066 27.1943 153.561 C27.1943 153.561 28.1445 154.98 28.5029 157.717 C28.5029 157.717 29.332 160.923 33.6089 160.923 C33.6089 160.923 39.665 161.041 40.4985 158.899 C40.4985 158.899 45.9604 160.329 46.9106 156.767 C46.9106 156.767 48.4516 158.548 50.354 156.823 C50.354 156.823 51.7788 149.399 38.9526 150.355 C38.9526 150.355 31.9468 140.851 31.1152 129.332 C31.1152 129.332 30.5215 125.414 37.6465 119.828 C37.6465 119.828 42.5146 116.622 45.0083 114.128 C45.0083 114.128 49.0478 116.74 49.0478 122.445 C49.0478 122.445 49.0478 124.82 48.2168 126.478 C48.2168 126.478 46.9106 130.158 49.6416 131.465 C49.6416 131.465 54.1538 134.913 65.9116 134.913 C65.9116 134.913 76.0049 134.913 79.5693 124.696 C79.5693 124.696 81.8257 112.348 77.0737 112.348 C77.0737 112.348 70.0679 111.996 70.0679 117.81 C70.0679 117.81 69.8301 120.422 71.4927 122.326 C71.4927 122.326 71.4927 123.87 69.2368 123.87 C69.2368 123.87 62.7031 121.97 62.7031 119.951 C62.7031 119.951 61.8745 116.983 64.3681 110.205 C64.3681 110.205 70.4238 91.4483 62.1098 87.169 C62.1098 87.169 61.1621 85.1504 62.3496 83.1343 C62.3496 83.1343 68.1679 71.2574 74.2236 64.6055 C74.2236 64.6055 75.0552 64.7266 74.9385 68.5264 C74.9385 68.5264 82.1821 67.6929 82.1821 73.6324 C82.1821 73.6324 86.3379 72.566 88.8315 74.9385 C88.8315 74.9385 95.1274 67.0992 96.9082 65.9117 C96.9082 65.9117 94.4126 63.1831 93.4624 62.5894 C93.4624 62.5894 91.9214 61.0454 90.1377 62.2305 C90.1377 62.2305 89.3066 62.9453 87.1689 61.397 C87.1689 61.397 82.8945 58.0772 82.2983 55.8208 C82.2983 55.8208 83.7256 51.4253 90.3774 51.4253 C90.3774 51.4253 92.6338 50.9478 94.0586 52.1402 L97.5019 55.106 C97.5019 55.106 101.658 57.0059 104.864 55.106 C104.864 55.106 107.358 56.1724 108.667 54.5122 C108.667 54.5122 111.397 54.8687 111.989 52.1402 C111.989 52.1402 112.941 48.8106 108.785 47.2666 C108.785 47.2666 104.508 46.0791 101.777 45.2505 C101.777 45.2505 99.1621 44.773 93.1084 39.4322 C93.1084 39.4322 91.5649 37.2901 83.7256 37.6485 C83.7256 37.6485 77.9072 38.126 74.6987 40.1421 C74.6987 40.1421 74.2261 34.6802 77.3135 33.8511 C77.3135 33.8511 84.5566 34.6802 84.5566 30.4029 C84.5566 30.4029 85.3286 26.3086 83.4883 24.4683 L83.0132 22.5684 L84.3193 20.7871 C84.3193 20.7871 88.1191 20.6661 88.1191 16.5078 L88.1191 12.3492 C88.1191 12.3492 90.3774 11.7603 90.3774 9.1455 C90.3774 9.1455 90.8501 6.8897 86.813 6.8897 C86.6943 6.5357 78.7383 5.9395 74.105 2.8545 C74.105 2.8545 69.7114 0 66.3867 4.396 C66.3867 4.396 64.1308 6.1792 61.1621 5.7022 C61.1621 5.7022 57.2412 4.1582 56.1748 6.0581 C56.1748 6.0581 55.4599 7.0083 56.1748 9.9766 C56.1748 9.9766 50.354 13.5415 47.977 18.4097 C47.977 18.4097 46.9082 20.7871 44.8896 21.9746 C44.8896 21.9746 43.7046 23.397 43.7046 26.4844 C43.7046 26.4844 43.3457 29.2154 40.2588 31.4742 C40.2588 31.4742 35.7466 34.6802 35.7466 41.2085 C35.7466 41.2085 38.1211 66.8638 24.8222 78.3819 C24.8222 78.3819 17.3389 83.4878 15.7954 92.3985 C15.7954 92.3985 9.6206 91.4483 9.6206 84.6778 C9.6206 84.6778 9.6206 81.9444 13.6577 77.3135 C13.6577 77.3135 24.2261 66.3868 24.2261 55.4624 C24.2261 55.4624 24.3472 42.8731 13.4204 34.2076 C13.4204 34.2076 10.8081 32.6592 8.312 35.1524 C8.312 35.1524 6.2934 37.6485 7.8369 40.9712 C7.8369 40.9712 13.8955 48.2168 15.083 52.375 C15.083 52.375 17.2178 57.3648 12.1118 65.9117 C12.1118 65.9117 7.8369 72.6846 4.3935 77.5533 C4.3935 77.5533 0.7124 82.5406 0.7124 88.8311 C0.7124 88.8311 0 102.017 16.9824 105.697 Z M76.2422 22.5064 C77.1328 20.1885 81.9443 21.022 81.9443 21.022 C82.0039 21.6158 82.2412 22.8033 82.2412 22.8033 L81.7661 24.3472 C80.3413 24.941 77.7861 24.7652 77.7861 24.7652 C75.5298 24.4063 76.2422 22.5064 76.2422 22.5064 Z"
           transform="translate(-0.708, 29.3676)"
           id="path3378" />
        <path
           style="fill:#ffec00; fill-rule:nonzero;stroke:none;"
           d="M10.5351 13.0356 C9.73731 13.6558 6.12744 16.707 4.8711 19.4145 C3.85938 20.7231 1.54395 20.4858 1.30615 18.5239 C0.87403 16.4199 0 11.5205 1.27051 8.0464 C0.9502 4.0327 2.49365 3.7974 3.41065 3.769 C5.46485 3.7974 6.02295 6.6186 6.26026 6.6186 C6.73535 7.3335 7.2124 8.0464 7.68506 8.7563 C8.49021 9.3833 9.38091 9.5591 10.0957 9.5591 C10.2739 6.3506 7.3291 3.0542 9.82271 0.9214 C10.4331 0.1167 9.72751 0.8101 10.5351 0.209 C11.4614 0.9502 11.4399 2.8022 10.5351 5.1963 C13.5015 5.0205 15.5581 5.2246 16.2373 3.769 C16.7095 1.9331 16.9687 1.7241 18.3745 0.9214 C18.3745 0.6841 18.3745 0.4443 18.3745 0.209 C19.0605 0 20.4502 1.9878 20.8442 2.2563 C26.3398 7.3291 33.6094 8.4878 35.8057 9.0815 C37.5869 9.1411 39.7861 14.0093 35.4756 14.458 C35.4756 13.7456 35.4756 13.0356 35.4756 12.3208 C35.2383 12.3208 35.001 12.3208 34.7632 12.3208 C34.7632 13.0356 34.7632 13.7456 34.7632 14.458 C34.084 15.5532 32.626 15.1728 31.9111 15.1728 C31.9111 14.458 31.9111 13.7456 31.9111 13.0356 C31.6758 13.0356 31.4385 13.0356 31.2012 13.0356 C31.2012 13.7456 31.2012 14.458 31.2012 15.1728 C30.6406 16.3271 25.5322 15.7334 25.5322 15.4961 C25.0596 15.4961 21.4355 11.8721 20.5093 11.6084 C16.0327 9.915 11.7319 12.2095 10.5351 13.0356 Z"
           transform="translate(72.625, 68.7402)"
           id="path3380" />
        <path
           style="fill:#ffec00; fill-rule:nonzero;stroke:none;"
           d="M20.5449 4.2177 C20.5449 4.2177 21.0796 2.3774 17.6953 2.3774 C17.6953 2.3774 11.3423 1.4272 9.14355 0.4155 C9.14355 0.4155 7.42139 0 6.70898 0.8906 C6.70898 0.8906 4.09668 1.603 1.42529 1.0713 C1.42529 1.0713 0 3.978 5.8208 6.2339 C5.8208 6.2339 6.41211 6.4716 6.2959 8.3169 C6.2959 8.3169 5.87793 11.2832 8.13623 11.7558 L9.02441 11.58 L8.96777 12.5298 L9.73926 12.5893 L10.0361 14.0141 C10.0361 14.0141 11.5205 13.9521 13.0644 13.0639 C13.0644 13.0639 14.6079 12.7055 15.2607 13.2446 C15.2607 13.2446 16.8046 14.6079 17.9326 12.9477 C17.9326 12.9477 18.7636 10.3925 18.1704 7.3051 C18.1704 7.3051 20.5449 5.8779 20.5449 4.2177 Z M11.9956 6.5307 C10.5112 6.1748 9.49951 7.2456 9.49951 7.2456 C8.13623 8.1362 7.54248 7.184 7.54248 7.184 C7.36475 5.1084 5.40283 3.8618 5.40283 3.8618 C8.31445 4.2773 14.1328 4.5742 14.1328 4.5742 C14.4296 7.4214 11.9956 6.5307 11.9956 6.5307 Z M14.705 7.1699 C14.705 7.1699 12.1572 10.3237 9.21924 11.0742 C9.21924 11.0742 11.5513 8.2241 14.705 7.1699 Z M15.9233 7.7778 C15.9233 7.7778 14.7597 11.5444 10.8438 12.9716 C10.8438 12.9716 14.2089 8.7773 15.9233 7.7778 Z M18.3554 5.6401 C18.3554 5.9467 17.9799 6.1914 17.5195 6.1914 C17.0542 6.1914 16.6811 5.9467 16.6811 5.6401 C16.6811 5.3413 17.0542 5.0918 17.5195 5.0918 C17.9799 5.0918 18.3554 5.3413 18.3554 5.6401 Z"
           transform="translate(68.4097, 34.4165)"
           id="path3382" />
        <path
           style="fill:#ffec00; fill-rule:nonzero;stroke:none;"
           d="M0 1.8428 C0.23731 0 1.66211 0.0591 1.66211 0.0591 C3.38623 0.0591 3.86133 1.1304 3.86133 1.1304 C2.79004 2.3179 0 1.8428 0 1.8428 Z"
           transform="translate(67.935, 32.873)"
           id="path3384" />
        <path
           style="fill:#ffec00; fill-rule:nonzero;stroke:none;"
           d="M3.2749 130.843 C2.3608 130.876 1.8266 132.871 2.5649 133.697 C4.8188 133.82 11.0459 133.858 11.5347 135.815 C7.811 135.734 4.498 136.039 4.1421 137.069 C4.5576 139.378 4.0278 140.484 4.0542 142.584 C4.7402 142.954 10.333 144.142 12.4707 149.315 C13.4702 152.321 12.3828 152.962 14.6958 154.34 C15.5342 155.08 24.4043 154.919 22.5351 151.357 C23.2217 151.343 22.8013 151.761 23.6489 152.335 C25.3852 153.413 26.5532 152.881 27.5415 152.625 C29.3677 151.647 29.6431 150.084 29.6431 149.371 C29.8784 149.371 30.1182 149.371 30.353 149.371 C30.1821 149.988 30.1821 150.516 30.4175 151.043 C31.1299 151.623 32.2436 151.718 32.7329 150.607 C33.0464 149.129 31.5737 145.88 27.6103 145.439 C24.3613 144.992 22.9224 145.543 21.2529 145.102 C16.6196 139.136 14.6958 131.19 14.2519 129.888 C12.1142 123.21 13.4941 121.163 14.6767 119.448 C20.3979 111.815 23.6489 112.038 26.791 108.044 C26.9145 107.959 32.1318 101.157 31.042 94.4121 C31.042 94.4121 30.9233 93.7617 31.6948 93.5811 C31.6948 93.5811 33.4145 100.829 29.7949 106.054 C29.7949 106.054 28.5625 107.019 29.3105 108.648 C29.9424 109.065 30.5669 109.616 31.0659 110.177 C33.1343 112.214 33.3574 117.644 32.645 119.334 C32.0654 120.987 29.707 124.549 36.8745 127.043 C39.2353 128.068 48.0532 129.536 52.4419 127.998 C55.5791 126.953 58.3862 124.739 59.0986 123.794 C60.2075 122.673 60.9819 120.868 61.4687 118.868 C60.7417 115.269 60.3071 111.564 60.1792 107.778 C57.5903 107.541 56.3008 109.321 56.0063 112.318 C56.7187 112.318 58.2529 112.39 58.9653 112.39 C58.7397 113.055 58.728 114.347 58.9653 115.06 C58.4907 115.302 57.4502 116.28 57.4502 116.755 C56.0254 116.489 56.2036 116.712 55.4912 116.712 C55.5552 119.41 52.3872 119.097 51.019 118.735 C48.4971 118.309 45.6924 116.627 45.0249 116 C43.5098 118.228 41.5508 116.712 39.6177 118.019 C39.9502 116.627 40.6601 116.09 42.7974 114.931 C41.9902 114.323 42.1611 114.751 41.5508 113.948 C40.7646 114.114 37.9385 115.14 36.7676 114.461 C36.7676 114.219 36.7676 113.981 36.7676 113.748 C38.5229 112.438 39.4868 111.691 41.729 111.098 C42.5312 108.87 42.7095 105.047 41.7524 103.769 C39.7173 103.76 37.6914 103.816 36.4756 103.352 C39.3633 100.046 45.5596 100.502 44.6045 94.5078 C41.2681 94.4551 39.6294 95.0254 37.48 95.9277 C40.6601 90.0811 46.54 91.1494 44.6045 83.1055 C44.3672 83.1055 43.9302 81.9111 41.729 82.8662 C39.4131 84.3809 41.3725 93.2871 34.6304 94.9492 C34.6304 94.7119 34.6304 94.4746 34.6304 94.2363 C36.167 92.9922 38.6416 86.6944 37.48 84.5283 C36.915 84.1074 34.2314 84.9942 33.8325 84.2002 C34.0698 82.7783 36.207 81.0537 35.3428 79.541 C35.103 79.541 31.168 76.5606 30.7451 74.877 C34.4263 77.0191 37.3354 76.898 39.2353 76.4204 C41.3486 74.7295 42.5244 74.6821 42.6191 70.4834 C40.2588 69.5049 37.3188 68.1441 36.0527 66.0044 C36.293 66.0044 36.5278 66.0044 36.7676 66.0044 C38.2495 67.3867 42.9707 67.479 46.0298 67.4268 C47.4282 66.565 48.4971 65.4937 48.167 61.7251 C47.6943 61.7251 46.3598 61.6963 45.3174 61.0147 C43.8921 59.3526 42.7402 58.3692 41.3154 56.709 C40.6601 55.9966 38.9385 55.106 38.9385 54.6289 C39.5322 54.2749 40.8052 54.6001 41.0425 54.6001 C41.4414 54.9922 51.7295 57.6924 51.7295 57.4502 C53.3559 55.98 55.3603 48.25 54.1992 44.0586 C53.4868 41.624 53.4868 39.9619 53.8691 38.2114 C54.1396 36.5205 56.2436 35.3618 56.7187 35.3618 C56.7832 32.0181 57.2602 29.9732 58.8564 28.2373 C57.9253 27.1568 56.6665 28.2964 55.2915 27.5269 C53.394 25.3848 51.4941 23.2476 49.5918 21.1104 C48.7368 19.6543 49.3901 16.0943 49.0337 15.5576 C48.0981 14.9829 47.3642 15.0567 46.7754 14.1328 C47.2505 14.1328 48.4067 13.9854 48.8818 13.9854 C49.1172 13.0357 49.3569 12.086 49.5918 11.1382 C49.8315 11.1382 51.0522 10.5684 51.019 13.2705 C51.6059 15.6221 50.2451 15.1685 51.4682 17.9351 C51.7056 17.9351 52.9521 20.6045 53.1567 21.1104 C53.394 21.8252 54.6147 23.2808 57.4287 22.5376 C57.6689 23.7246 58.6518 29.0991 65.3042 27.1377 C67.8306 25.2046 66.8237 21.167 65.7788 19.1817 C64.2236 19.8277 60.9673 20.3692 58.9487 19.3574 C58.7114 19.3574 58.3813 18.9727 58.1435 18.9727 C58.1435 18.023 58.1435 17.0728 58.1435 16.1231 C59.5019 15.2276 59.3242 15.4009 59.5688 13.2705 C57.6001 12.7578 58.0083 13.6958 57.4643 11.7554 C57.227 11.7554 56.9302 11.5205 56.7187 11.1382 C56.7187 10.4258 56.7187 9.711 56.7187 8.9961 C54.6123 9.5186 53.5459 12.354 53.1567 11.1382 C53.1567 10.4258 53.1567 9.711 53.1567 8.9961 C54.6099 8.0435 54.4936 7.8301 54.5815 5.4361 C53.6313 4.7236 52.6792 4.0088 51.7295 3.2988 C51.7295 3.0591 51.1094 2.7334 51.1094 2.4986 C47.8462 1.9595 44.8159 0.3565 41.1968 0.2398 C38.9385 0 38.8198 4.1582 42.4673 4.0088 C44.1059 4.1582 40.8408 6.8277 38.8198 8.7276 C35.9697 11.1074 33.8325 14.3111 35.0791 16.9849 C35.6157 17.8472 36.9199 18.7637 38.1904 18.9727 C38.4302 19.4478 38.6675 19.9229 38.9053 20.3975 C39.1426 20.3975 40.0923 23.2476 40.3301 23.2476 C41.9141 26.5772 43.1562 30.4053 48.8818 31.8018 C49.4209 32.0488 48.8794 32.728 51.019 33.2241 C51.019 33.4644 51.8838 34.2622 51.8838 34.4995 C51.4682 34.9771 41.4912 35.5088 35.73 34.856 C29.7095 21.8794 26.646 25.1758 26.791 26.0996 C27.0049 27.021 28.3608 28.4439 30.353 28.9497 C32.2886 32.0654 31.2202 36.5205 32.3481 37.3496 C34.5093 38.1333 36.376 39.0591 38.1904 40.3486 C39.4131 41.3272 43.6289 44.1797 45.3174 46.0508 C46.0034 47.6231 44.6045 47.2383 44.6045 47.4756 C43.6548 47.4756 41.4321 48.2168 39.6177 46.0508 C38.1069 44.2959 36.4448 41.2681 32.4907 40.3486 C34.0107 42.042 35.0034 43.4243 35.4946 45.3667 C35.2573 45.3667 34.248 45.0083 33.2031 43.9136 C31.5596 40.9663 28.5391 39.6602 23.9409 39.6387 C21.3618 40.4365 22.5517 43.8208 24.271 44.3599 C32.8423 47.0176 34.7231 51.1875 34.186 52.4917 C33.4761 52.4917 31.7803 52.4629 31.0659 52.4629 C23.0244 46.3169 22.7539 48.9028 22.5137 48.9028 C22.5137 50.563 22.1933 52.4917 22.9058 53.6812 C25.1142 53.6861 33.5356 54.332 35.73 56.5288 C32.1816 56.7427 27.7905 56.7212 22.5137 56.7378 C22.7539 57.4502 22.4331 58.1319 22.668 58.8467 C26.8599 59.0508 34.0698 61.4614 34.0698 61.6963 C28.0117 62.4683 23.4663 60.5401 21.8037 60.3023 C22.041 61.4898 22.1933 62.4683 23.1431 63.5347 C24.8672 64.6055 29.2016 65.5557 30.8638 66.0283 C33.331 67.1279 28.1304 67.0991 23.9409 66.0044 C22.6089 65.6743 21.564 65.7647 20.3765 66.0044 C20.3765 66.4771 20.854 67.4268 21.0913 67.4268 C21.8774 68.3389 22.9482 68.8589 23.9409 69.5645 C26.5869 70.0108 26.9097 71.1699 26.9097 71.4048 C25.9619 71.4048 23.4663 70.9917 22.5137 70.9917 C16.2988 68.5694 16.477 71.4165 17.0566 72.0435 C18.2534 73.4473 23.5586 75.7842 24.4043 76.4536 C26.2329 78.0542 27.4346 78.9927 26.791 83.8154 C26.4536 84.4209 25.7842 83.7705 25.7842 83.5313 C23.8721 79.8379 18.7949 77.0762 18.1704 76.6294 C17.0137 75.6485 14.3418 75.4277 14.2519 75.96 C14.0141 77.3872 13.582 80.0586 14.6079 81.2178 C15.3203 81.6904 22.312 88.3848 21.4663 92.3985 C21.2266 92.3985 20.7539 92.0371 20.3765 91.6524 C19.5049 90.0899 12.5942 83.0488 11.1147 82.3906 C10.3784 82.1084 9.666 81.9751 8.9961 82.5977 C8.5947 83.6231 10.0005 85.1934 10.5991 86.5186 C9.4878 85.9815 8.2646 85.9531 7.5522 85.9531 C7.5522 86.666 7.3931 86.875 7.9726 87.4971 C9.7349 88.4942 19.1059 96.8486 18.7305 99.0479 C18.2558 99.0479 17.7783 99.0479 17.3057 99.0479 C16.0659 97.1055 9.3691 92.2891 6.8374 91.6524 C6.8374 92.6026 7.1269 93.0918 7.1269 94.0469 C9.1123 95.1299 12.1997 98.4453 12.8266 100.9 C12.5893 100.9 11.5801 100.544 11.1147 100.202 C8.685 98.0078 7.2129 97.167 4.7026 96.6445 C6.1914 100.013 12.3662 105.641 14.0283 107.541 C14.938 108.543 14.6958 110.281 14.6958 111.236 C14.3418 111.725 13.3613 111.725 12.5395 110.889 C12.5395 110.419 8.5019 105.19 8.2646 105.19 C7.3149 104.012 5.8066 103.114 4.8545 101.927 C4.2324 101.39 3.7407 101.347 3.2749 101.632 C3.75 103.057 4.187 104.644 5.0327 104.819 C7.4809 105.974 7.4809 106.738 7.6162 107.45 C7.6807 110.899 8.8037 112.728 9.977 114.931 C7.4809 115.511 4.187 111.55 4.0967 108.158 C2.7173 108.291 2.3965 108.243 1.8525 110.177 C1.603 111.051 1.2471 112.124 1.9619 113.24 C4.5171 114.333 6.8589 117.025 6.9917 119.923 C7.2295 119.923 6.0132 120.812 4.7026 119.448 C4.187 117.477 4.5029 117.853 2.5649 117.306 C2.2705 116.176 1.1592 116.176 0.8457 116.579 C0.416 117.724 0.043 120.004 0.5796 121.029 C2.7173 124.117 5.8354 126.644 7.6162 129.888 C7.6616 130.201 6.2344 130.515 5.415 129.418 C4.2202 128.012 2.7124 127.186 0.6059 126.748 C0 127.441 0.1782 128.197 0.6059 128.886 C1.8501 129.408 3.6977 129.76 3.2749 130.843 Z M52.8335 32.8989 C51.5845 29.1538 49.687 26.957 48.3808 25.418 C45.1748 24.3472 44.1059 23.1597 43.334 21.7324 C41.1968 15.6172 43.873 12 44.6045 8.9961 C46.1816 6.7686 45.3174 12.5747 45.3174 13.9854 C44.8755 19.4194 45.353 21.2598 46.3027 21.9722 C47.9653 22.9224 48.4399 22.979 50.3042 24.6748 C50.9311 25.5347 56.1914 30.4336 55.1489 33.0747 C54.9448 33.7588 54.1396 34.2027 52.8335 32.8989 Z"
           transform="translate(16.4668, 35.0102)"
           id="path3386" />
        <path
           style="fill:#ffec00; fill-rule:nonzero;stroke:none;"
           d="M7.4829 6.2959 C7.3052 7.4263 7.6611 8.9106 7.6611 8.9106 C7.9555 9.9224 9.5586 11.3447 9.5586 11.3447 L8.9082 11.4609 C7.3052 9.9224 4.5122 9.3833 4.5122 9.3833 C0.3559 8.7895 0.2397 5.3457 0.2397 5.3457 C0 3.4458 1.1279 4.2793 1.1279 4.2793 C3.1465 6.417 5.7588 6.4736 5.7588 6.4736 C5.2842 3.8022 2.9092 2.3794 2.9092 2.3794 C0.7719 1.0713 1.0117 0.2373 1.0117 0.2373 C2.9687 0 4.9277 1.3086 4.9277 1.3086 C7.958 3.3892 7.4829 6.2959 7.4829 6.2959 Z"
           transform="translate(39.0757, 63.2734)"
           id="path3388" />
        <path
           style="fill:#ffec00; fill-rule:nonzero;stroke:none;"
           d="M10.749 10.6298 C11.0434 13.8383 7.3027 13.0639 7.3027 13.0639 C6.353 12.4702 6.0561 11.582 6.0561 11.582 C5.8183 8.851 3.0259 5.8183 3.0259 5.8183 C0.5322 3.6264 0.2969 2.021 0.2969 2.021 C0 0 2.0757 0.5937 2.0757 0.5937 C9.3808 3.2036 10.749 10.6298 10.749 10.6298 Z"
           transform="translate(46.5586, 54.0708)"
           id="path3390" />
        <path
           style="fill:#ffec00; fill-rule:nonzero;stroke:none;"
           d="M1.812 7.3647 C0 5.6094 0.0048 1.8716 1.9663 0.7129 C3.6572 0 6.3291 0.625 8.02 3.6528 C5.5976 4.1704 3.1132 5.7329 1.812 7.3647 Z"
           transform="translate(7.2432, 63.7197)"
           id="path3392" />
        <path
           style="fill:#ffec00; fill-rule:nonzero;stroke:none;"
           d="M0 3.3838 C0.7148 2.8471 3.0302 0.2637 6.5024 0 C7.3051 0.9785 7.7465 1.7832 8.2216 2.7309 C5.2553 3.2036 2.3701 5.5215 1.5151 5.9653 C1.2778 5.4927 0.6245 4.2744 0 3.3838 Z"
           transform="translate(10.8101, 69.7783)"
           id="path3394" />
        <path
           style="fill:#ffec00; fill-rule:nonzero;stroke:none;"
           d="M1.6031 5.5552 C0.9951 4.7476 0.8906 3.8594 0 2.7027 C1.6031 1.0997 3.9473 0.0645 6.6162 0 C7.1245 1.0997 7.6592 2.4346 7.749 3.9473 C5.4336 3.7691 3.6504 4.396 1.6031 5.5552 Z"
           transform="translate(13.8403, 75.3588)"
           id="path3396" />
        <path
           style="fill:#ffec00; fill-rule:nonzero;stroke:none;"
           d="M0 4.4502 C0.4444 3.1157 0.5347 1.6054 0.1782 0.1806 C2.5557 0.1806 4.187 0 6.5928 0.4463 C6.8589 2.6719 6.5928 4.187 6.0562 6.3242 C3.7407 5.0776 0.1548 4.4839 0 4.4502 Z"
           transform="translate(16.0654, 82.4243)"
           id="path3398" />
        <path
           style="fill:#ffec00; fill-rule:nonzero;stroke:none;"
           d="M0 11.1597 C0.35644 8.7871 0 6.5879 0 5.6382 C1.72216 4.5718 3.68359 1.3042 3.91894 0.5938 C4.39599 0.5938 4.80908 0 5.28415 0 C5.46485 1.3633 5.28415 2.0166 4.479 2.9996 C4.09912 7.1226 6.53125 3.7383 6.77095 3.7383 C7.00825 5.4004 7.30515 6.6499 6.88965 8.6968 C7.10105 8.6968 7.81345 8.6709 8.55225 8.6709 C8.84915 6.5288 8.96775 6.1153 9.62065 5.6382 C11.3422 6.3531 12.1142 7.4786 15.5009 6.0562 C16.2109 6.1748 17.3554 7.4952 18.707 8.8467 C18.707 9.813 18.707 9.9439 18.707 9.958 L18.707 9.958 C18.707 9.958 18.707 9.9649 18.707 9.9722 C17.6381 10.7466 12.1738 17.0376 12.1738 17.2798 C12.1738 17.2798 10.0361 15.7359 6.77095 15.8526 C6.77095 14.8999 6.94675 14.1875 6.53125 13.3614 C5.04931 12.2305 3.36523 11.1836 0 11.1597 Z"
           transform="translate(75.8311, 85.9008)"
           id="path3400" />
        <path
           style="fill:#ffec00; fill-rule:nonzero;stroke:none;"
           d="M7.6616 2.4887 C7.2148 4.0966 5.8779 6.082 5.8779 6.3242 C3.9804 5.372 0.2402 3.6479 0 3.6479 C0.5058 2.2773 1.0688 1.6006 1.6933 0 C4.8994 0.3559 6.0586 1.4223 7.6616 2.4887 Z"
           transform="translate(12.8594, 91.0664)"
           id="path3402" />
        <path
           style="fill:#ffec00; fill-rule:nonzero;stroke:none;"
           d="M0 3.3604 C0.9805 1.8452 1.5152 1.2183 2.2276 0.1519 C4.0728 0 6.4859 2.3296 7.5069 2.8877 C6.9605 3.8897 4.9893 6.2388 4.9893 6.4761 C3.3272 5.5264 1.6622 4.3076 0 3.3604 Z"
           transform="translate(8.6728, 98.1269)"
           id="path3404" />
        <path
           style="fill:#ffec00; fill-rule:nonzero;stroke:none;"
           d="M7.3667 2.375 C6.9843 3.2939 5.4975 5.0464 5.3173 6.1152 C5.082 6.1152 0.2373 4.664 0 4.664 C0.4751 3.2368 1.5459 1.665 2.0234 0.2373 C2.7358 0 5.9419 0.684 7.3667 2.375 Z"
           transform="translate(3.3555, 105.612)"
           id="path3406" />
        <path
           style="fill:#ffec00; fill-rule:nonzero;stroke:none;"
           d="M0.7148 0.0879 C3.0874 0.0879 4.8398 0 7.2173 0 C7.2173 1.185 7.5708 2.0469 8.1978 3.2939 C5.8208 3.7695 2.8447 4.3935 0.4727 4.8681 C0 3.3848 0.0903 1.4228 0.7148 0.0879 Z"
           transform="translate(0.7456, 115.382)"
           id="path3408" />
        <path
           style="fill:#ffec00; fill-rule:nonzero;stroke:none;"
           d="M6.2363 0 C6.9487 0 7.039 0.7129 7.749 0.7129 C7.1264 1.5156 6.5923 1.9619 6.3501 2.8212 C5.1343 4.8691 3.5005 8.9961 3.5005 9.2334 C1.8711 8.6396 0 7.0341 0.2705 6.0556 C2.3247 4.8779 4.1865 1.6005 6.2363 0 Z"
           transform="translate(4.1299, 120.992)"
           id="path3410" />
        <path
           style="fill:#ffec00; fill-rule:nonzero;stroke:none;"
           d="M2.9404 0.1465 C3.1777 2.0517 3.3271 5.372 3.5625 7.2763 C1.6909 7.1904 1.1426 6.9912 0 6.5586 C0.2378 4.9013 0.8955 1.6621 1.1328 0 C1.8476 0 2.228 0.1465 2.9404 0.1465 Z"
           transform="translate(12.6172, 126.516)"
           id="path3412" />
      </g>
      <g
         id="Group10"
         clip-path="url(#Clip10)">
        <path
           style="fill:#ffec00; fill-rule:nonzero;stroke:none;"
           d="M57.3384 0 C60.0317 4.2559 61.5844 9.2598 61.5844 14.6128 C61.5844 30.0825 48.6225 42.6191 32.6255 42.6191 C16.6313 42.6191 3.667 30.0825 3.667 14.6128 C3.667 9.4473 5.1206 4.6123 7.6425 0.4585 C2.8735 5.9063 0 12.9312 0 20.6021 C0 37.9219 14.6386 51.9595 32.6967 51.9595 C50.7505 51.9595 65.394 37.9219 65.394 20.6021 C65.394 12.7153 62.3501 5.5098 57.3384 0 Z"
           transform="translate(111.463, 20.3691)"
           id="path3415" />
        <path
           style="fill:#092781; fill-rule:nonzero;stroke:none;"
           d="M57.419 0.6363 C60.1504 4.9395 61.5889 9.896 61.5889 14.9639 C61.5889 30.1153 48.832 42.4434 33.1524 42.4434 C17.4766 42.4434 4.7212 30.1153 4.7212 14.9639 C4.7212 10.0835 6.0698 5.2837 8.6182 1.0825 L7.773 0.4629 C2.7617 6.1934 0 13.4678 0 20.9532 C0 38.5318 14.9019 52.8355 33.2236 52.8355 C51.5391 52.8355 66.4434 38.5318 66.4434 20.9532 C66.4434 13.2466 63.5322 5.8086 58.25 0 L57.419 0.6363 Z M62.6436 14.9639 C62.6436 11.5181 61.9356 8.1382 60.6963 4.9512 C63.7412 9.7461 65.3887 15.2725 65.3887 20.9532 C65.3887 37.9546 50.959 51.7857 33.2236 51.7857 C15.4839 51.7857 1.0518 37.9546 1.0518 20.9532 C1.0518 15.4839 2.5835 10.1358 5.4214 5.4571 C4.3076 8.5039 3.669 11.708 3.669 14.9639 C3.669 30.6973 16.8945 43.4927 33.1524 43.4927 C49.4111 43.4927 62.6436 30.6973 62.6436 14.9639 Z"
           transform="translate(110.936, 20.018)"
           id="path3417" />
      </g>
      <g
         id="Group11"
         clip-path="url(#Clip11)">
        <path
           style="fill:#ffec00; fill-rule:nonzero;stroke:none;"
           d="M26.4297 12.5513 L32.3057 0 L32.1582 13.8574 L42.9063 5.1016 L36.7608 17.5244 L50.2354 14.2993 L39.3067 22.8247 L52.8526 25.7627 L39.3067 28.7075 L50.2354 37.2309 L36.7608 34.0034 L42.9063 46.4263 L32.1582 37.668 L32.3057 51.5273 L26.4297 38.9761 L20.5498 51.5273 L20.6949 37.668 L9.9507 46.4263 L16.0967 34.0034 L2.6172 37.2309 L13.5464 28.7075 L0 25.7627 L13.5464 22.8247 L2.6172 14.2993 L16.0967 17.5244 L9.9507 5.1016 L20.6949 13.8574 L20.5498 0 L26.4297 12.5513 Z"
           transform="translate(117.807, 0.228)"
           id="path3420" />
        <path
           style="fill:#092781; fill-rule:nonzero;stroke:none;"
           d="M20.1269 0.2329 C20.1269 0.2329 20.2407 11.0312 20.2622 12.9526 C18.7729 11.7368 10.4018 4.916 10.4018 4.916 L9.5849 5.5669 C9.5849 5.5669 14.3725 15.2446 15.2251 16.9663 C13.3559 16.5195 2.8569 14.0073 2.8569 14.0073 L2.4033 14.9453 C2.4033 14.9453 10.917 21.5898 12.4297 22.7724 C10.5537 23.1811 0 25.4707 0 25.4707 L0 26.5131 C0 26.5131 10.5537 28.8071 12.4297 29.2109 C10.917 30.3935 2.4033 37.0337 2.4033 37.0337 L2.8569 37.9765 C2.8569 37.9765 13.3559 35.4614 15.2251 35.0127 C14.3725 36.7368 9.5849 46.4165 9.5849 46.4165 L10.4018 47.0673 C10.4018 47.0673 18.7729 40.247 20.2622 39.0307 C20.2407 40.9521 20.1269 51.7504 20.1269 51.7504 L21.1455 51.9834 C21.1455 51.9834 25.7241 42.2036 26.5434 40.4629 C27.3559 42.2036 31.935 51.9834 31.935 51.9834 L32.9555 51.7504 C32.9555 51.7504 32.8413 40.9521 32.8178 39.0307 C34.309 40.247 42.6831 47.0673 42.6831 47.0673 L43.4956 46.4165 C43.4956 46.4165 38.7075 36.7368 37.853 35.0127 C39.729 35.4614 50.226 37.9765 50.226 37.9765 L50.6772 37.0337 C50.6772 37.0337 42.1655 30.3935 40.6547 29.2109 C42.5307 28.8071 53.0805 26.5131 53.0805 26.5131 L53.0805 25.4707 C53.0805 25.4707 42.5307 23.1811 40.6547 22.7724 C42.1655 21.5898 50.6772 14.9453 50.6772 14.9453 L50.226 14.0073 C50.226 14.0073 39.729 16.5195 37.853 16.9663 C38.7075 15.2446 43.4956 5.5669 43.4956 5.5669 L42.6831 4.916 C42.6831 4.916 34.309 11.7368 32.8178 12.9526 C32.8413 11.0312 32.9555 0.2329 32.9555 0.2329 L31.935 0 C31.935 0 27.3559 9.7797 26.5434 11.5161 C25.7241 9.7797 21.1455 0 21.1455 0 L20.1269 0.2329 Z M21.2192 2.6836 C22.6347 5.6972 26.5434 14.038 26.5434 14.038 C26.5434 14.038 30.4477 5.6972 31.8589 2.6836 C31.8256 6.0156 31.726 15.2207 31.726 15.2207 C31.726 15.2207 38.8647 9.4023 41.4487 7.2983 C39.9712 10.2856 35.8862 18.538 35.8862 18.538 C35.8862 18.538 44.8442 16.396 48.0786 15.6171 C45.4526 17.6665 38.1948 23.333 38.1948 23.333 C38.1948 23.333 47.1958 25.2851 50.4487 25.9907 C47.1958 26.6982 38.1948 28.6504 38.1948 28.6504 C38.1948 28.6504 45.4526 34.3169 48.0786 36.3637 C44.8442 35.5898 35.8862 33.4453 35.8862 33.4453 C35.8862 33.4453 39.9712 41.6977 41.4487 44.6806 C38.8647 42.5791 31.726 36.7607 31.726 36.7607 C31.726 36.7607 31.8256 45.9677 31.8589 49.2998 C30.4477 46.2861 26.5434 37.9458 26.5434 37.9458 C26.5434 37.9458 22.6347 46.2861 21.2192 49.2998 C21.2573 45.9677 21.3545 36.7607 21.3545 36.7607 C21.3545 36.7607 14.2182 42.5791 11.6342 44.6806 C13.1113 41.6977 17.1938 33.4453 17.1938 33.4453 C17.1938 33.4453 8.2407 35.5898 5.0014 36.3637 C7.6279 34.3169 14.8877 28.6504 14.8877 28.6504 C14.8877 28.6504 5.8896 26.6982 2.6362 25.9907 C5.8896 25.2851 14.8877 23.333 14.8877 23.333 C14.8877 23.333 7.6279 17.6665 5.0014 15.6171 C8.2407 16.396 17.1938 18.538 17.1938 18.538 C17.1938 18.538 13.1113 10.2856 11.6342 7.3027 C14.2182 9.4023 21.3545 15.2207 21.3545 15.2207 C21.3545 15.2207 21.2573 6.0156 21.2192 2.6836 Z"
           transform="translate(117.693, 0)"
           id="path3422" />
      </g>
      <path
         style="fill:#ffec00; fill-rule:nonzero;stroke:none;"
         d="M26.8032 13.3994 C26.8032 20.7998 20.7993 26.7988 13.3989 26.7988 C5.999 26.7988 0 20.7998 0 13.3994 C0 5.999 5.999 0 13.3989 0 C20.7993 0 26.8032 5.999 26.8032 13.3994 Z"
         transform="translate(130.628, 127.812)"
         id="path3424" />
      <g
         id="Group12"
         clip-path="url(#Clip12)">
        <path
           style="fill:#ffffff; fill-rule:nonzero;stroke:none;"
           d="M21.022 40.8281 C13.019 39.3603 6.9487 32.3594 6.9487 23.9336 C6.9487 15.5078 13.019 8.5019 21.022 7.0342 L21.022 0 C9.1646 1.5264 0 11.6553 0 23.9336 C0 36.2119 9.1646 46.3379 21.022 47.8721 L21.022 40.8281 Z"
           transform="translate(119.887, 117.278)"
           id="path3427" />
        <path
           style="fill:#ffffff; fill-rule:nonzero;stroke:none;"
           d="M0 0 L0 7.0342 C8.0079 8.5019 14.0782 15.5078 14.0782 23.9336 C14.0782 32.3594 8.0079 39.3603 0 40.8281 L0 47.8721 C11.8643 46.3379 21.0264 36.2119 21.0264 23.9336 C21.0264 11.6553 11.8643 1.5264 0 0 Z"
           transform="translate(147.144, 117.278)"
           id="path3429" />
      </g>
      <path
         style="fill:#ffec00; fill-rule:nonzero;stroke:none;"
         d="M16.1513 58.9038 C16.1513 58.9038 0 50.5913 9.7392 32.5386 C9.7392 32.5386 20.6636 13.7793 53.4414 0 L65.7934 2.1377 L60.8061 13.7793 C60.8061 13.7793 37.5278 21.8491 22.0888 37.0552 C22.0888 37.0552 13.0644 46.5542 16.1513 58.9038 Z"
         transform="translate(87.7671, 89.6982)"
         id="path3431" />
      <path
         style="fill:#ffec00; fill-rule:nonzero;stroke:none;"
         d="M50.1187 0 C50.1187 0 65.0806 8.3164 56.0562 25.4111 C56.0562 25.4111 45.1275 44.6523 12.354 58.4307 L0 56.0566 L4.5147 44.8896 C4.5147 44.8896 29.691 36.5771 45.5122 19.8398 C45.5122 19.8398 52.9693 12.1162 50.1187 0 Z"
         transform="translate(135.269, 136.015)"
         id="path3433" />
      <g
         id="Group13"
         clip-path="url(#Clip13)">
        <path
           style="fill:#ffec00; fill-rule:nonzero;stroke:none;"
           d="M46.623 35.6328 C85.3379 35.6328 88.4248 23.7539 88.4248 23.7539 L88.4248 0 C88.4248 0 89.6123 15.9121 46.3857 15.9121 L43.227 15.9121 C0 15.9121 1.1894 0 1.1894 0 L1.1894 23.7539 C1.1894 23.7539 4.2768 35.6328 42.9917 35.6328 L46.623 35.6328 Z"
           transform="translate(99.4043, 197.058)"
           id="path3436" />
        <path
           style="fill:#092781; fill-rule:nonzero;stroke:none;"
           d="M0.0049 0.0381 L0.0049 0.0478 C0.0024 0.0762 0 0.1006 0 0.167 C0 0.1806 0.0049 0.2285 0.0049 0.2568 C0.0049 0.6699 0.0049 23.8584 0.0049 23.8584 L0.019 23.9297 C0.1499 24.4238 3.6572 36.1982 42.3413 36.1982 L45.9726 36.1982 C84.6543 36.1982 88.1592 24.4238 88.292 23.9297 L88.3066 23.8584 C88.3066 23.8584 88.3066 0.6699 88.3066 0.2568 C88.3066 0.2285 88.3115 0.1806 88.3115 0.167 C88.3115 0.1006 88.3066 0.0762 88.3066 0.0478 L88.3066 0.0381 L88.3066 0 L87.2431 0.0381 L87.2431 0.2138 C87.2285 0.7744 87.0293 3.1826 84.4834 5.8994 C80.4082 10.2412 70.3808 15.4179 45.7353 15.4179 L42.5766 15.4179 C17.9302 15.4179 7.9038 10.2412 3.8305 5.8994 C1.2827 3.1826 1.083 0.7842 1.0713 0.2138 L1.0713 0.0381 L0.0049 0 L0.0049 0.0381 Z M45.7353 16.4863 C70.8467 16.4863 81.1201 11.0957 85.3144 6.5742 C86.1982 5.6191 86.8008 4.7119 87.2431 3.8808 C87.2431 9.2627 87.2431 23.5586 87.2431 23.706 C86.9385 24.5371 82.3359 35.1338 45.9726 35.1338 L42.3413 35.1338 C5.98 35.1338 1.3725 24.5371 1.0713 23.706 C1.0713 23.5586 1.0713 9.2627 1.0713 3.8808 C1.5127 4.7119 2.1137 5.6191 2.9971 6.5742 C7.1933 11.0957 17.4673 16.4863 42.5766 16.4863 L45.7353 16.4863 Z"
           transform="translate(100.055, 197.02)"
           id="path3438" />
      </g>
      <g
         id="Group14"
         clip-path="url(#Clip14)">
        <path
           style="fill:#092781; fill-rule:nonzero;stroke:none;"
           d="M3.8946 12.833 L0 2.5928 L1.1045 2.1748 L3.0376 7.2529 L5.2886 0.5791 L6.7969 0 L4.8423 5.5049 L10.8482 10.1875 L9.3785 10.748 L4.4151 6.706 L3.648 8.8623 L4.9991 12.415 L3.8946 12.833 Z"
           transform="translate(32.3144, 193.112)"
           id="path3441" />
        <path
           style="fill:#092781; fill-rule:nonzero;stroke:none;"
           d="M0.0215 11.8838 L0 0.3946 L1.2256 0 L8.0434 9.3281 L6.7471 9.7461 L4.7427 6.8965 L1.1211 8.0508 L1.2017 11.5088 L0.0215 11.8838 Z M1.0923 6.8252 L4.0303 5.8848 L2.2183 3.2822 C1.6601 2.4795 1.228 1.8194 0.9238 1.3057 C1.0234 2.0137 1.0781 2.7266 1.083 3.4483 L1.0923 6.8252 Z"
           transform="translate(42.9917, 191.468)"
           id="path3443" />
        <path
           style="fill:#092781; fill-rule:nonzero;stroke:none;"
           d="M1.0474 8.3975 L2.0996 8.0225 C2.3037 8.5879 2.5508 9.0058 2.8359 9.2812 C3.1231 9.5517 3.4819 9.7373 3.9116 9.8418 C4.3413 9.9365 4.7925 9.9277 5.2676 9.8086 C5.9492 9.6328 6.4385 9.334 6.7305 8.9014 C7.0225 8.4785 7.1011 7.9941 6.9658 7.457 C6.8872 7.1435 6.7471 6.8965 6.5498 6.6973 C6.353 6.498 6.0967 6.3603 5.7832 6.2793 C5.4649 6.208 4.8115 6.1416 3.8164 6.1133 C2.9331 6.0703 2.2847 5.9756 1.8789 5.8144 C1.4702 5.6621 1.1211 5.4199 0.8316 5.0869 C0.544 4.7549 0.3374 4.3555 0.2188 3.8808 C0 3.0264 0.1001 2.2568 0.5181 1.5723 C0.9336 0.8838 1.6128 0.418 2.5557 0.1855 C3.2041 0.0146 3.8023 0 4.3535 0.1289 C4.9043 0.2568 5.3721 0.5322 5.7642 0.9316 C6.1533 1.3398 6.4385 1.8623 6.6211 2.5039 L5.5693 2.8789 C5.3364 2.2139 4.9971 1.748 4.5552 1.5058 C4.1108 1.2783 3.565 1.2353 2.9165 1.3965 C2.2564 1.5635 1.793 1.8389 1.52 2.2236 C1.2471 2.5986 1.1685 3.0264 1.2876 3.4814 C1.3941 3.9043 1.6055 4.2129 1.919 4.3799 C2.23 4.5459 2.8569 4.6455 3.7974 4.6689 C4.7168 4.6836 5.3745 4.7402 5.7686 4.831 C6.3672 4.9639 6.8613 5.2207 7.2481 5.5908 C7.6328 5.9609 7.9038 6.4502 8.0606 7.0683 C8.2149 7.666 8.2124 8.2598 8.0557 8.8301 C7.8965 9.4004 7.6094 9.875 7.1841 10.2598 C6.7637 10.6445 6.208 10.9248 5.522 11.1006 C4.4483 11.3711 3.5103 11.2666 2.7075 10.7773 C1.9072 10.2978 1.354 9.5049 1.0474 8.3975 Z"
           transform="translate(49.5034, 188.87)"
           id="path3445" />
        <path
           style="fill:#092781; fill-rule:nonzero;stroke:none;"
           d="M4.9209 11.5322 L3.1465 2.0283 L0.2373 2.5742 L0 1.3057 L7.00342 0 L7.24072 1.2686 L4.30811 1.8096 L6.07959 11.3135 L4.9209 11.5322 Z"
           transform="translate(57.1079, 186.69)"
           id="path3447" />
        <path
           style="fill:#092781; fill-rule:nonzero;stroke:none;"
           d="M0 11.4326 L2.16602 0.1425 L3.4458 0 L8.35938 10.4541 L7.00586 10.6064 L5.5835 7.4384 L1.80469 7.8798 L1.22559 11.29 L0 11.4326 Z M2.01172 6.664 L5.0752 6.3076 L3.79492 3.4003 C3.39844 2.5078 3.09912 1.7861 2.89746 1.2255 C2.86182 1.9335 2.78076 2.6455 2.64551 3.3584 L2.01172 6.664 Z"
           transform="translate(65.2441, 186.129)"
           id="path3449" />
        <path
           style="fill:#092781; fill-rule:nonzero;stroke:none;"
           d="M0.02392 10.9717 L0 0.0185 L1.77881 0.0185 L3.92089 7.7705 L4.35302 9.3945 C4.45556 8.9814 4.61425 8.3974 4.82568 7.6279 L6.95848 0 L8.55178 0 L8.57568 10.957 L7.43798 10.9619 L7.42138 1.8047 L4.82812 10.9619 L3.75488 10.9717 L1.14013 1.6055 L1.16162 10.9717 L0.02392 10.9717 Z"
           transform="translate(74.1948, 185.541)"
           id="path3451" />
      </g>
      <g
         id="Group15"
         clip-path="url(#Clip15)">
        <path
           style="fill:#092781; fill-rule:nonzero;stroke:none;"
           d="M1.3447 11.917 L0 1.0401 L1.7627 0.8262 L4.8262 8.2598 L5.4482 9.8223 C5.501 9.4043 5.5908 8.8057 5.7051 8.0176 L6.9111 0.1905 L8.4883 0 L9.8271 10.8623 L8.7021 11.0098 L7.581 1.9239 L6.1133 11.3282 L5.0449 11.4561 L1.3252 2.4746 L2.4707 11.7793 L1.3447 11.917 Z"
           transform="translate(196.15, 185.151)"
           id="path3454" />
        <path
           style="fill:#092781; fill-rule:nonzero;stroke:none;"
           d="M0 10.9052 L3.6152 0 L4.9072 0.0244 L8.417 11.0293 L7.0537 11.0097 L6.0566 7.6758 L2.2519 7.6279 L1.2353 10.9345 L0 10.9052 Z M2.6172 6.4502 L5.7002 6.4883 L4.8066 3.4443 C4.5312 2.5127 4.3271 1.748 4.1992 1.164 C4.0713 1.8623 3.8994 2.5605 3.6767 3.249 L2.6172 6.4502 Z"
           transform="translate(206.609, 185.108)"
           id="path3456" />
        <path
           style="fill:#092781; fill-rule:nonzero;stroke:none;"
           d="M0 10.8955 L1.1358 0 L2.3086 0.1192 L1.3106 9.7324 L5.7139 10.1934 L5.5811 11.4756 L0 10.8955 Z"
           transform="translate(215.644, 185.36)"
           id="path3458" />
        <path
           style="fill:#092781; fill-rule:nonzero;stroke:none;"
           d="M0 10.1455 L5.3906 0 L6.6591 0.2324 L8.2734 11.665 L6.9345 11.418 L6.5117 7.9697 L2.7685 7.2813 L1.2158 10.3682 L0 10.1455 Z M3.3291 6.1836 L6.3593 6.7441 L5.9892 3.5859 C5.875 2.6221 5.8037 1.833 5.7753 1.2441 C5.5332 1.9092 5.2382 2.5645 4.9013 3.2061 L3.3291 6.1836 Z"
           transform="translate(221.477, 186.69)"
           id="path3460" />
        <path
           style="fill:#092781; fill-rule:nonzero;stroke:none;"
           d="M0.6416 11.4756 L1.7998 6.9775 L0 0 L1.3867 0.3613 L2.2989 4.0088 C2.4795 4.7304 2.627 5.4052 2.7403 6.0468 C3.1397 5.5478 3.6192 5.0019 4.1748 4.4033 L6.669 1.7051 L7.9795 2.0429 L2.9356 7.2724 L1.7862 11.7695 L0.6416 11.4756 Z"
           transform="translate(231.398, 187.516)"
           id="path3462" />
        <path
           style="fill:#092781; fill-rule:nonzero;stroke:none;"
           d="M0.3369 6.4219 L1.4297 6.6641 C1.2969 7.2578 1.2774 7.7471 1.3731 8.1221 C1.4678 8.5068 1.667 8.8584 1.9756 9.1719 C2.2842 9.4951 2.669 9.7276 3.1348 9.8789 C3.8047 10.1026 4.3789 10.1123 4.8594 9.9033 C5.334 9.7041 5.6573 9.3428 5.833 8.8203 C5.9326 8.5166 5.9512 8.2266 5.8946 7.9561 C5.8379 7.6807 5.6905 7.4238 5.4668 7.1817 C5.2442 6.9531 4.7256 6.5498 3.9092 5.9795 C3.1826 5.4766 2.6934 5.044 2.4317 4.6875 C2.1709 4.3369 2.0039 3.9424 1.9424 3.5098 C1.876 3.0869 1.919 2.6358 2.0752 2.166 C2.3516 1.3301 2.8496 0.7266 3.5723 0.3848 C4.294 0.0235 5.1153 0 6.042 0.3086 C6.6739 0.5176 7.1866 0.8262 7.5801 1.2354 C7.9746 1.6436 8.2266 2.1133 8.336 2.669 C8.4405 3.2207 8.4024 3.8145 8.2119 4.4551 L7.125 4.208 C7.2862 3.5098 7.2481 2.9492 7.0059 2.5078 C6.7637 2.0664 6.3223 1.7383 5.6807 1.5293 C5.0391 1.3154 4.4981 1.2969 4.0655 1.4678 C3.6289 1.6436 3.3389 1.957 3.1875 2.4033 C3.0537 2.8213 3.0684 3.1914 3.2393 3.501 C3.4102 3.8145 3.8858 4.2324 4.669 4.7549 C5.4336 5.2676 5.9561 5.666 6.2412 5.9463 C6.6739 6.3887 6.9493 6.8731 7.0772 7.3906 C7.2002 7.9131 7.167 8.4688 6.9678 9.0674 C6.7686 9.6611 6.4551 10.1592 6.0127 10.5537 C5.5762 10.9531 5.0723 11.1953 4.5127 11.2998 C3.9473 11.3848 3.3291 11.3233 2.6553 11.1045 C1.6055 10.7529 0.8692 10.1592 0.4561 9.3233 C0.0479 8.4834 0 7.5137 0.3369 6.4219 Z"
           transform="translate(237.915, 190.556)"
           id="path3464" />
        <path
           style="fill:#092781; fill-rule:nonzero;stroke:none;"
           d="M0 10.2305 L3.8994 0 L5.0019 0.418 L1.1025 10.6582 L0 10.2305 Z"
           transform="translate(245.538, 192.993)"
           id="path3466" />
        <path
           style="fill:#092781; fill-rule:nonzero;stroke:none;"
           d="M0 8.7022 L7.5 0 L8.6826 0.5088 L7.7324 12.0225 L6.4834 11.4854 L6.83 8.0225 L3.3339 6.5313 L1.1347 9.1914 L0 8.7022 Z M4.1181 5.5762 L6.9531 6.793 L7.291 3.6338 C7.3906 2.6651 7.4951 1.8858 7.5996 1.292 C7.2148 1.8955 6.7822 2.4707 6.3173 3.0264 L4.1181 5.5762 Z"
           transform="translate(247.576, 195.244)"
           id="path3468" />
      </g>
      <g
         id="Group16"
         clip-path="url(#Clip16)">
        <path
           style="fill:#092781; fill-rule:nonzero;stroke:none;"
           d="M0 10.834 L1.6479 0 L4.7212 0.46972 C5.4785 0.58398 6.0464 0.73632 6.4189 0.93554 C6.9106 1.18261 7.3096 1.56738 7.6206 2.08496 C7.9316 2.59765 8.1387 3.2207 8.2451 3.95214 C8.352 4.68359 8.331 5.52343 8.1836 6.47851 C7.9985 7.7041 7.6587 8.71582 7.1694 9.51855 C6.6777 10.3213 6.1245 10.8574 5.5073 11.1191 C4.8872 11.3945 4.1201 11.4561 3.2085 11.3232 L0 10.834 Z M1.3608 9.73242 L3.2583 10.0215 C4.0254 10.1406 4.6235 10.1025 5.0581 9.91699 C5.4907 9.72754 5.8564 9.37109 6.1509 8.85351 C6.5473 8.16015 6.8203 7.30468 6.977 6.27929 C7.1435 5.17675 7.1269 4.29882 6.9223 3.62402 C6.7182 2.94921 6.3999 2.46972 5.9629 2.18457 C5.666 1.99511 5.1772 1.84277 4.4907 1.73828 L2.6216 1.458 L1.3608 9.73242 Z"
           transform="translate(121.809, 216.067)"
           id="path3471" />
        <path
           style="fill:#092781; fill-rule:nonzero;stroke:none;"
           d="M0 10.915 L0.9307 0 L2.1084 0.09961 L1.1729 11.0147 L0 10.915 Z"
           transform="translate(131.586, 217.273)"
           id="path3473" />
        <path
           style="fill:#092781; fill-rule:nonzero;stroke:none;"
           d="M0 10.9531 L0.3252 0 L4.3125 0.11914 C5.1435 0.14258 5.7563 0.26172 6.1484 0.47949 C6.5376 0.69336 6.851 1.0498 7.0937 1.52929 C7.3335 2.01855 7.4448 2.57422 7.4238 3.19629 C7.3999 4.02343 7.1645 4.68847 6.7158 5.19629 C6.267 5.69043 5.6308 6.0039 4.7993 6.11816 C5.1318 6.32715 5.3862 6.52636 5.5571 6.73535 C5.8989 7.1582 6.1933 7.64257 6.4453 8.15527 L7.9223 11.1855 L6.4287 11.1426 L5.2934 8.83496 C4.8564 7.92773 4.5214 7.31933 4.2959 7.00586 C4.0654 6.69238 3.8422 6.47851 3.624 6.36523 C3.4052 6.25586 3.0966 6.18945 2.7002 6.17968 L1.3227 6.13183 L1.1801 10.9912 L0 10.9531 Z M1.3608 4.89258 L3.9253 4.96386 C4.4858 4.97754 4.9135 4.93066 5.208 4.80175 C5.5 4.67383 5.7373 4.46484 5.9179 4.18457 C6.0937 3.89453 6.1884 3.55761 6.2006 3.17285 C6.2172 2.6123 6.0673 2.1709 5.7519 1.84277 C5.4384 1.51562 4.9585 1.34472 4.3198 1.32031 L1.4697 1.24023 L1.3608 4.89258 Z"
           transform="translate(135.26, 217.558)"
           id="path3475" />
        <path
           style="fill:#092781; fill-rule:nonzero;stroke:none;"
           d="M0 11.1279 L3.0346 0.04687 L4.3217 0 L8.4116 10.8008 L7.0532 10.8477 L5.8755 7.57519 L2.0805 7.72754 L1.2348 11.0713 L0 11.1279 Z M2.3794 6.53516 L5.4624 6.41211 L4.4077 3.41504 C4.0756 2.50293 3.8374 1.74805 3.6762 1.16797 C3.5903 1.87598 3.4487 2.5791 3.2631 3.28613 L2.3794 6.53516 Z"
           transform="translate(143.88, 217.606)"
           id="path3477" />
        <path
           style="fill:#092781; fill-rule:nonzero;stroke:none;"
           d="M0 8.25977 L1.0498 7.98926 C1.1543 8.81543 1.3389 9.37598 1.5957 9.66602 C1.8526 9.94629 2.1797 10.0742 2.584 10.0322 C2.8692 10.0078 3.1162 9.90332 3.3155 9.72754 C3.5196 9.55176 3.6426 9.34278 3.7002 9.0957 C3.7715 8.76367 3.7803 8.27442 3.7188 7.61914 L3.0205 0.10449 L4.1983 0 L4.8877 7.42383 C5.0108 8.76367 4.878 9.72754 4.4883 10.3213 C4.0987 10.915 3.5049 11.2432 2.7071 11.3144 C1.9287 11.3945 1.3252 11.1953 0.8975 10.7393 C0.4034 10.208 0.1045 9.38086 0 8.25977 Z"
           transform="translate(152.715, 216.955)"
           id="path3479" />
        <path
           style="fill:#092781; fill-rule:nonzero;stroke:none;"
           d="M0 11.5137 L1.8672 0.18554 L3.1445 0 L8.331 10.3213 L6.9775 10.5107 L5.4717 7.37597 L1.7099 7.92285 L1.2207 11.3379 L0 11.5137 Z M1.8808 6.70215 L4.9394 6.26953 L3.581 3.40039 C3.1592 2.50781 2.8408 1.79492 2.6318 1.23437 C2.6074 1.94726 2.5459 2.66015 2.4316 3.37695 L1.8808 6.70215 Z"
           transform="translate(159.222, 216.243)"
           id="path3481" />
      </g>
    </g>
  </g>
</svg>
